<svg width="645" height="296" viewBox="0 0 645 296" fill="none" xmlns="http://www.w3.org/2000/svg">
<path opacity="0.7" d="M19.7261 294.676C19.5442 294.676 19.4053 294.629 19.3096 294.533C19.2138 294.428 19.166 294.279 19.166 294.088V284.954C19.166 284.762 19.2138 284.614 19.3096 284.509C19.4053 284.403 19.5298 284.351 19.683 284.351C19.8362 284.351 19.9463 284.379 20.0133 284.437C20.0899 284.485 20.1761 284.576 20.2718 284.71L26.5334 293.054H26.1887V284.925C26.1887 284.743 26.2366 284.604 26.3323 284.509C26.4281 284.403 26.5669 284.351 26.7488 284.351C26.9212 284.351 27.0504 284.403 27.1366 284.509C27.2323 284.604 27.2802 284.743 27.2802 284.925V294.102C27.2802 294.284 27.2371 294.428 27.1509 294.533C27.0743 294.629 26.9595 294.676 26.8063 294.676C26.6626 294.676 26.5478 294.648 26.4616 294.59C26.3754 294.533 26.2845 294.442 26.1887 294.317L19.9415 285.973H20.2718V294.088C20.2718 294.279 20.2239 294.428 20.1282 294.533C20.0324 294.629 19.8984 294.676 19.7261 294.676ZM32.5398 294.705C31.8601 294.705 31.2713 294.557 30.7734 294.26C30.2755 293.963 29.8878 293.547 29.6101 293.011C29.342 292.465 29.208 291.823 29.208 291.086C29.208 290.531 29.2846 290.033 29.4378 289.593C29.591 289.143 29.816 288.76 30.1128 288.444C30.4096 288.128 30.759 287.888 31.1611 287.726C31.5728 287.553 32.0324 287.467 32.5398 287.467C33.2196 287.467 33.8084 287.615 34.3063 287.912C34.8042 288.209 35.1871 288.63 35.4552 289.176C35.7329 289.712 35.8717 290.349 35.8717 291.086C35.8717 291.641 35.7951 292.139 35.6419 292.58C35.4887 293.02 35.2637 293.403 34.9669 293.729C34.6701 294.045 34.3159 294.289 33.9042 294.461C33.5021 294.624 33.0473 294.705 32.5398 294.705ZM32.5398 293.772C32.9707 293.772 33.3489 293.666 33.6744 293.456C33.9999 293.245 34.2489 292.939 34.4212 292.537C34.6031 292.134 34.6941 291.651 34.6941 291.086C34.6941 290.215 34.4978 289.549 34.1052 289.09C33.7223 288.63 33.2005 288.401 32.5398 288.401C32.0994 288.401 31.7165 288.506 31.3909 288.716C31.075 288.918 30.826 289.219 30.6441 289.621C30.4718 290.014 30.3856 290.502 30.3856 291.086C30.3856 291.948 30.5819 292.613 30.9744 293.082C31.367 293.542 31.8888 293.772 32.5398 293.772ZM40.1202 294.676C39.9575 294.676 39.8138 294.633 39.6894 294.547C39.5649 294.451 39.4596 294.308 39.3734 294.116L36.8889 288.314C36.8219 288.171 36.7979 288.037 36.8171 287.912C36.8362 287.788 36.8937 287.687 36.9894 287.611C37.0852 287.534 37.2192 287.496 37.3915 287.496C37.5447 287.496 37.6644 287.529 37.7506 287.596C37.8368 287.663 37.9133 287.783 37.9804 287.955L40.3356 293.714H39.9479L42.3462 287.955C42.4133 287.783 42.4899 287.663 42.576 287.596C42.6622 287.529 42.7867 287.496 42.9494 287.496C43.1026 287.496 43.2175 287.534 43.2941 287.611C43.3803 287.687 43.4281 287.788 43.4377 287.912C43.4569 288.027 43.4377 288.156 43.3803 288.3L40.867 294.116C40.8 294.308 40.6995 294.451 40.5654 294.547C40.441 294.633 40.2926 294.676 40.1202 294.676ZM49.3756 294.576C49.165 294.576 49.007 294.528 48.9017 294.432C48.8059 294.327 48.7581 294.188 48.7581 294.016C48.7581 293.911 48.782 293.81 48.8299 293.714C48.8873 293.609 48.9639 293.504 49.0597 293.398L52.2766 289.952C52.7649 289.425 53.1144 288.941 53.325 288.501C53.5452 288.051 53.6553 287.596 53.6553 287.137C53.6553 286.562 53.4782 286.127 53.124 285.83C52.7793 285.523 52.2718 285.37 51.6016 285.37C51.1708 285.37 50.7639 285.437 50.3809 285.571C49.9979 285.705 49.6293 285.911 49.2751 286.189C49.1506 286.285 49.0357 286.328 48.9304 286.318C48.8347 286.309 48.7485 286.27 48.6719 286.203C48.5953 286.136 48.5427 286.05 48.5139 285.945C48.4852 285.839 48.4852 285.734 48.5139 285.629C48.5522 285.523 48.6288 285.428 48.7437 285.342C49.1171 285.035 49.5671 284.791 50.0937 284.609C50.6203 284.418 51.1564 284.322 51.7022 284.322C52.3819 284.322 52.9564 284.427 53.4255 284.638C53.8947 284.848 54.2489 285.16 54.4883 285.571C54.7276 285.973 54.8473 286.466 54.8473 287.051C54.8473 287.453 54.7803 287.85 54.6463 288.243C54.5218 288.626 54.3255 289.018 54.0574 289.42C53.7989 289.822 53.4591 290.239 53.0378 290.67L49.9788 293.901V293.571H54.8186C55.0005 293.571 55.1346 293.614 55.2207 293.7C55.3165 293.776 55.3643 293.896 55.3643 294.059C55.3643 294.231 55.3165 294.361 55.2207 294.447C55.1346 294.533 55.0005 294.576 54.8186 294.576H49.3756ZM60.4427 294.705C59.2842 294.705 58.4034 294.26 57.8002 293.37C57.197 292.479 56.8954 291.191 56.8954 289.506C56.8954 288.377 57.0294 287.429 57.2975 286.663C57.5656 285.887 57.9629 285.303 58.4895 284.911C59.0257 284.518 59.6767 284.322 60.4427 284.322C61.6107 284.322 62.4916 284.762 63.0852 285.643C63.6884 286.514 63.99 287.797 63.99 289.492C63.99 290.622 63.8559 291.574 63.5878 292.35C63.3198 293.125 62.9224 293.714 62.3958 294.116C61.8692 294.509 61.2182 294.705 60.4427 294.705ZM60.4427 293.686C61.2469 293.686 61.8405 293.346 62.2235 292.666C62.616 291.977 62.8123 290.919 62.8123 289.492C62.8123 288.056 62.616 287.007 62.2235 286.347C61.8405 285.677 61.2469 285.342 60.4427 285.342C59.648 285.342 59.0544 285.677 58.6619 286.347C58.2693 287.017 58.073 288.065 58.073 289.492C58.073 290.919 58.2693 291.977 58.6619 292.666C59.0544 293.346 59.648 293.686 60.4427 293.686ZM66.5981 294.576C66.3875 294.576 66.2295 294.528 66.1242 294.432C66.0285 294.327 65.9806 294.188 65.9806 294.016C65.9806 293.911 66.0045 293.81 66.0524 293.714C66.1098 293.609 66.1864 293.504 66.2822 293.398L69.4991 289.952C69.9874 289.425 70.3369 288.941 70.5475 288.501C70.7677 288.051 70.8778 287.596 70.8778 287.137C70.8778 286.562 70.7007 286.127 70.3465 285.83C70.0018 285.523 69.4944 285.37 68.8241 285.37C68.3933 285.37 67.9864 285.437 67.6034 285.571C67.2205 285.705 66.8518 285.911 66.4976 286.189C66.3731 286.285 66.2582 286.328 66.1529 286.318C66.0572 286.309 65.971 286.27 65.8944 286.203C65.8178 286.136 65.7652 286.05 65.7364 285.945C65.7077 285.839 65.7077 285.734 65.7364 285.629C65.7747 285.523 65.8513 285.428 65.9662 285.342C66.3396 285.035 66.7896 284.791 67.3162 284.609C67.8428 284.418 68.3789 284.322 68.9247 284.322C69.6045 284.322 70.1789 284.427 70.6481 284.638C71.1172 284.848 71.4714 285.16 71.7108 285.571C71.9502 285.973 72.0698 286.466 72.0698 287.051C72.0698 287.453 72.0028 287.85 71.8688 288.243C71.7443 288.626 71.548 289.018 71.28 289.42C71.0215 289.822 70.6816 290.239 70.2603 290.67L67.2013 293.901V293.571H72.0411C72.223 293.571 72.3571 293.614 72.4432 293.7C72.539 293.776 72.5868 293.896 72.5868 294.059C72.5868 294.231 72.539 294.361 72.4432 294.447C72.3571 294.533 72.223 294.576 72.0411 294.576H66.5981ZM75.2094 294.576C74.9988 294.576 74.8408 294.528 74.7355 294.432C74.6397 294.327 74.5918 294.188 74.5918 294.016C74.5918 293.911 74.6158 293.81 74.6636 293.714C74.7211 293.609 74.7977 293.504 74.8934 293.398L78.1104 289.952C78.5987 289.425 78.9481 288.941 79.1588 288.501C79.379 288.051 79.4891 287.596 79.4891 287.137C79.4891 286.562 79.312 286.127 78.9577 285.83C78.613 285.523 78.1056 285.37 77.4354 285.37C77.0046 285.37 76.5977 285.437 76.2147 285.571C75.8317 285.705 75.4631 285.911 75.1089 286.189C74.9844 286.285 74.8695 286.328 74.7642 286.318C74.6684 286.309 74.5823 286.27 74.5057 286.203C74.4291 286.136 74.3764 286.05 74.3477 285.945C74.319 285.839 74.319 285.734 74.3477 285.629C74.386 285.523 74.4626 285.428 74.5775 285.342C74.9509 285.035 75.4009 284.791 75.9275 284.609C76.454 284.418 76.9902 284.322 77.5359 284.322C78.2157 284.322 78.7902 284.427 79.2593 284.638C79.7285 284.848 80.0827 285.16 80.3221 285.571C80.5614 285.973 80.6811 286.466 80.6811 287.051C80.6811 287.453 80.6141 287.85 80.48 288.243C80.3556 288.626 80.1593 289.018 79.8912 289.42C79.6327 289.822 79.2928 290.239 78.8716 290.67L75.8126 293.901V293.571H80.6524C80.8343 293.571 80.9683 293.614 81.0545 293.7C81.1502 293.776 81.1981 293.896 81.1981 294.059C81.1981 294.231 81.1502 294.361 81.0545 294.447C80.9683 294.533 80.8343 294.576 80.6524 294.576H75.2094Z" fill="#030229"/>
<rect y="179.763" width="100.53" height="87.0663" fill="#6C8539"/>
<path d="M28.4985 220.004V221.894H27.5597V220.004H28.4985ZM28.4985 228.128V230.018H27.5597V228.128H28.4985ZM29.3514 226.693C29.3514 226.558 29.3268 226.437 29.2777 226.331C29.2327 226.224 29.153 226.128 29.0384 226.042C28.928 225.952 28.7746 225.868 28.5782 225.791C28.386 225.713 28.1426 225.639 27.8481 225.57C27.4226 225.467 27.0463 225.353 26.7191 225.226C26.3959 225.095 26.1239 224.944 25.903 224.772C25.6821 224.6 25.5144 224.398 25.3998 224.165C25.2894 223.931 25.2342 223.659 25.2342 223.348C25.2342 223.05 25.2996 222.778 25.4305 222.532C25.5614 222.283 25.7475 222.068 25.9889 221.888C26.2302 221.704 26.5166 221.563 26.8479 221.465C27.1793 221.367 27.5433 221.318 27.9401 221.318C28.5169 221.318 29.018 221.412 29.4434 221.6C29.8688 221.788 30.1981 222.048 30.4313 222.379C30.6685 222.706 30.7871 223.087 30.7871 223.52H29.3084C29.3084 223.316 29.2552 223.132 29.1489 222.968C29.0466 222.804 28.8953 222.674 28.6948 222.575C28.4944 222.477 28.2428 222.428 27.9401 222.428C27.6497 222.428 27.4104 222.471 27.2222 222.557C27.034 222.639 26.8929 222.747 26.7988 222.882C26.7088 223.013 26.6638 223.156 26.6638 223.312C26.6638 223.434 26.6904 223.545 26.7436 223.643C26.8009 223.741 26.8909 223.831 27.0136 223.913C27.1363 223.995 27.2958 224.073 27.4922 224.146C27.6885 224.22 27.9278 224.291 28.2101 224.361C28.6314 224.459 29.0037 224.576 29.3268 224.711C29.65 224.846 29.9199 225.005 30.1367 225.189C30.3535 225.369 30.5151 225.582 30.6215 225.827C30.7319 226.069 30.7871 226.345 30.7871 226.656C30.7871 226.971 30.7217 227.253 30.5908 227.502C30.4599 227.748 30.2717 227.957 30.0263 228.128C29.785 228.3 29.4945 228.433 29.155 228.527C28.8155 228.617 28.4371 228.662 28.0199 228.662C27.6517 228.662 27.2856 228.617 26.9215 228.527C26.5616 228.437 26.2364 228.298 25.9459 228.11C25.6555 227.922 25.4223 227.682 25.2465 227.392C25.0746 227.097 24.9887 226.752 24.9887 226.355H26.4736C26.4736 226.568 26.5104 226.752 26.5841 226.907C26.6618 227.059 26.7702 227.183 26.9093 227.282C27.0524 227.376 27.2222 227.445 27.4186 227.49C27.6149 227.535 27.8317 227.558 28.069 227.558C28.3676 227.558 28.611 227.519 28.7991 227.441C28.9914 227.359 29.1305 227.253 29.2164 227.122C29.3064 226.991 29.3514 226.848 29.3514 226.693ZM38.1029 221.416V222.232L34.9552 228.564H33.3966L36.5443 222.594H32.4701V221.416H38.1029ZM45.4063 224.361V225.619C45.4063 226.138 45.3408 226.59 45.21 226.975C45.0831 227.355 44.9011 227.67 44.6639 227.92C44.4307 228.169 44.1484 228.355 43.8171 228.478C43.4899 228.601 43.1258 228.662 42.7249 228.662C42.324 228.662 41.9579 228.601 41.6266 228.478C41.2994 228.355 41.0171 228.169 40.7799 227.92C40.5426 227.67 40.3585 227.355 40.2276 226.975C40.0967 226.59 40.0313 226.138 40.0313 225.619V224.361C40.0313 223.841 40.0947 223.391 40.2215 223.011C40.3524 222.631 40.5365 222.316 40.7737 222.066C41.011 221.812 41.2932 221.624 41.6205 221.502C41.9477 221.379 42.3118 221.318 42.7127 221.318C43.1135 221.318 43.4796 221.379 43.811 221.502C44.1423 221.624 44.4266 221.812 44.6639 222.066C44.9011 222.316 45.0831 222.631 45.21 223.011C45.3408 223.391 45.4063 223.841 45.4063 224.361ZM43.9214 225.735V224.232C43.9214 223.933 43.8948 223.676 43.8417 223.459C43.7885 223.238 43.7108 223.056 43.6085 222.913C43.5062 222.77 43.3794 222.665 43.2281 222.6C43.0808 222.53 42.909 222.496 42.7127 222.496C42.5245 222.496 42.3547 222.53 42.2034 222.6C42.0561 222.665 41.9313 222.77 41.8291 222.913C41.7268 223.056 41.6491 223.238 41.5959 223.459C41.5427 223.676 41.5162 223.933 41.5162 224.232V225.735C41.5162 226.038 41.5427 226.3 41.5959 226.521C41.6491 226.742 41.7268 226.924 41.8291 227.067C41.9354 227.21 42.0643 227.316 42.2156 227.386C42.367 227.455 42.5368 227.49 42.7249 227.49C42.9172 227.49 43.0869 227.455 43.2342 227.386C43.3856 227.316 43.5124 227.21 43.6146 227.067C43.7169 226.924 43.7926 226.742 43.8417 226.521C43.8948 226.3 43.9214 226.038 43.9214 225.735ZM47.6783 227.828C47.6783 227.599 47.756 227.406 47.9115 227.251C48.0669 227.091 48.2776 227.012 48.5435 227.012C48.8135 227.012 49.0241 227.091 49.1755 227.251C49.3309 227.406 49.4086 227.599 49.4086 227.828C49.4086 228.057 49.3309 228.249 49.1755 228.404C49.0241 228.56 48.8135 228.638 48.5435 228.638C48.2776 228.638 48.0669 228.56 47.9115 228.404C47.756 228.249 47.6783 228.057 47.6783 227.828ZM57.2766 227.392V228.564H51.8218V227.564L54.4295 225.122C54.6995 224.872 54.9122 224.649 55.0677 224.453C55.2272 224.252 55.3417 224.073 55.4113 223.913C55.4808 223.749 55.5156 223.602 55.5156 223.471C55.5156 223.185 55.4215 222.95 55.2333 222.766C55.0452 222.581 54.7752 222.489 54.4234 222.489C54.133 222.489 53.8916 222.543 53.6994 222.649C53.5112 222.751 53.3721 222.892 53.2821 223.072C53.1921 223.252 53.1471 223.457 53.1471 223.686H51.6623C51.6623 223.252 51.7707 222.856 51.9875 222.496C52.2043 222.136 52.5151 221.849 52.9201 221.637C53.3292 221.424 53.818 221.318 54.3866 221.318C54.9347 221.318 55.4031 221.403 55.7917 221.575C56.1844 221.747 56.483 221.994 56.6875 222.318C56.8921 222.637 56.9943 223.015 56.9943 223.453C56.9943 223.694 56.9534 223.923 56.8716 224.14C56.7939 224.357 56.6794 224.567 56.528 224.772C56.3767 224.977 56.1926 225.185 55.9758 225.398C55.759 225.611 55.5135 225.838 55.2395 226.079L53.7178 227.392H57.2766ZM64.7825 225.846V227.024H58.9902L58.9289 226.097L62.3282 221.416H63.4878L62.2116 223.496L60.4138 225.846H64.7825ZM63.8314 221.416V228.564H62.3527V221.416H63.8314ZM72.2104 221.416V228.564H70.7317V221.416H72.2104ZM76.7939 221.416L73.7505 224.962L72.0325 226.637L71.6889 225.251L72.9038 223.766L74.9531 221.416H76.7939ZM75.1556 228.564L72.7933 225.269L73.8732 224.355L76.9228 228.564H75.1556Z" fill="#FFFEFF"/>
<path opacity="0.7" d="M156.29 294.576C156.079 294.576 155.916 294.523 155.801 294.418C155.696 294.303 155.643 294.14 155.643 293.93V285.097C155.643 284.887 155.696 284.729 155.801 284.623C155.916 284.509 156.079 284.451 156.29 284.451H159.061C160.699 284.451 161.962 284.882 162.853 285.744C163.743 286.605 164.188 287.86 164.188 289.506C164.188 290.33 164.073 291.057 163.844 291.689C163.623 292.312 163.293 292.838 162.853 293.269C162.412 293.7 161.876 294.025 161.244 294.246C160.612 294.466 159.885 294.576 159.061 294.576H156.29ZM156.821 293.571H158.975C159.645 293.571 160.225 293.484 160.713 293.312C161.211 293.14 161.622 292.886 161.948 292.551C162.283 292.216 162.532 291.795 162.695 291.287C162.858 290.77 162.939 290.177 162.939 289.506C162.939 288.156 162.609 287.146 161.948 286.476C161.287 285.796 160.296 285.456 158.975 285.456H156.821V293.571ZM169.289 294.705C168.552 294.705 167.915 294.562 167.379 294.274C166.853 293.978 166.441 293.561 166.144 293.025C165.857 292.489 165.713 291.847 165.713 291.1C165.713 290.373 165.857 289.741 166.144 289.205C166.431 288.659 166.824 288.233 167.322 287.927C167.829 287.62 168.413 287.467 169.074 287.467C169.543 287.467 169.964 287.548 170.338 287.711C170.711 287.864 171.027 288.089 171.286 288.386C171.554 288.683 171.755 289.042 171.889 289.463C172.032 289.885 172.104 290.358 172.104 290.885C172.104 291.038 172.061 291.153 171.975 291.23C171.889 291.297 171.764 291.33 171.602 291.33H166.604V290.569H171.329L171.099 290.756C171.099 290.239 171.022 289.803 170.869 289.449C170.716 289.085 170.491 288.807 170.194 288.616C169.907 288.424 169.543 288.329 169.103 288.329C168.614 288.329 168.198 288.444 167.853 288.673C167.518 288.894 167.264 289.205 167.092 289.607C166.92 289.999 166.834 290.459 166.834 290.986V291.072C166.834 291.953 167.044 292.623 167.465 293.082C167.896 293.542 168.504 293.772 169.289 293.772C169.615 293.772 169.936 293.729 170.252 293.642C170.577 293.556 170.893 293.413 171.199 293.212C171.333 293.125 171.453 293.087 171.558 293.097C171.673 293.097 171.764 293.13 171.831 293.197C171.898 293.255 171.941 293.331 171.961 293.427C171.989 293.513 171.98 293.609 171.932 293.714C171.894 293.82 171.812 293.911 171.688 293.987C171.372 294.217 170.998 294.394 170.568 294.518C170.137 294.643 169.711 294.705 169.289 294.705ZM176.746 294.705C176.047 294.705 175.444 294.552 174.937 294.246C174.429 293.939 174.037 293.513 173.759 292.967C173.491 292.412 173.357 291.771 173.357 291.043C173.357 290.488 173.434 289.99 173.587 289.549C173.74 289.109 173.965 288.736 174.262 288.429C174.558 288.113 174.913 287.874 175.324 287.711C175.746 287.548 176.22 287.467 176.746 287.467C177.091 287.467 177.45 287.52 177.823 287.625C178.197 287.73 178.537 287.912 178.843 288.171C178.939 288.238 179.001 288.319 179.03 288.415C179.058 288.511 179.058 288.606 179.03 288.702C179.001 288.788 178.953 288.865 178.886 288.932C178.819 288.989 178.733 289.023 178.628 289.032C178.532 289.042 178.431 289.008 178.326 288.932C178.077 288.74 177.823 288.606 177.565 288.53C177.306 288.453 177.057 288.415 176.818 288.415C176.445 288.415 176.119 288.477 175.841 288.602C175.564 288.716 175.329 288.884 175.138 289.104C174.946 289.324 174.798 289.597 174.693 289.923C174.597 290.248 174.549 290.627 174.549 291.057C174.549 291.89 174.745 292.551 175.138 293.039C175.53 293.518 176.09 293.757 176.818 293.757C177.057 293.757 177.302 293.719 177.55 293.642C177.809 293.566 178.067 293.432 178.326 293.24C178.431 293.164 178.532 293.13 178.628 293.14C178.723 293.149 178.805 293.188 178.872 293.255C178.939 293.312 178.982 293.389 179.001 293.484C179.03 293.58 179.03 293.676 179.001 293.772C178.972 293.858 178.91 293.934 178.814 294.001C178.508 294.25 178.173 294.432 177.809 294.547C177.445 294.653 177.091 294.705 176.746 294.705ZM184.899 294.576C184.689 294.576 184.531 294.528 184.425 294.432C184.33 294.327 184.282 294.188 184.282 294.016C184.282 293.911 184.306 293.81 184.354 293.714C184.411 293.609 184.488 293.504 184.583 293.398L187.8 289.952C188.289 289.425 188.638 288.941 188.849 288.501C189.069 288.051 189.179 287.596 189.179 287.137C189.179 286.562 189.002 286.127 188.648 285.83C188.303 285.523 187.795 285.37 187.125 285.37C186.694 285.37 186.288 285.437 185.905 285.571C185.522 285.705 185.153 285.911 184.799 286.189C184.674 286.285 184.559 286.328 184.454 286.318C184.358 286.309 184.272 286.27 184.196 286.203C184.119 286.136 184.066 286.05 184.038 285.945C184.009 285.839 184.009 285.734 184.038 285.629C184.076 285.523 184.152 285.428 184.267 285.342C184.641 285.035 185.091 284.791 185.617 284.609C186.144 284.418 186.68 284.322 187.226 284.322C187.906 284.322 188.48 284.427 188.949 284.638C189.418 284.848 189.773 285.16 190.012 285.571C190.251 285.973 190.371 286.466 190.371 287.051C190.371 287.453 190.304 287.85 190.17 288.243C190.045 288.626 189.849 289.018 189.581 289.42C189.323 289.822 188.983 290.239 188.561 290.67L185.502 293.901V293.571H190.342C190.524 293.571 190.658 293.614 190.744 293.7C190.84 293.776 190.888 293.896 190.888 294.059C190.888 294.231 190.84 294.361 190.744 294.447C190.658 294.533 190.524 294.576 190.342 294.576H184.899ZM195.966 294.705C194.808 294.705 193.927 294.26 193.324 293.37C192.721 292.479 192.419 291.191 192.419 289.506C192.419 288.377 192.553 287.429 192.821 286.663C193.089 285.887 193.487 285.303 194.013 284.911C194.549 284.518 195.2 284.322 195.966 284.322C197.134 284.322 198.015 284.762 198.609 285.643C199.212 286.514 199.514 287.797 199.514 289.492C199.514 290.622 199.38 291.574 199.111 292.35C198.843 293.125 198.446 293.714 197.919 294.116C197.393 294.509 196.742 294.705 195.966 294.705ZM195.966 293.686C196.771 293.686 197.364 293.346 197.747 292.666C198.14 291.977 198.336 290.919 198.336 289.492C198.336 288.056 198.14 287.007 197.747 286.347C197.364 285.677 196.771 285.342 195.966 285.342C195.172 285.342 194.578 285.677 194.186 286.347C193.793 287.017 193.597 288.065 193.597 289.492C193.597 290.919 193.793 291.977 194.186 292.666C194.578 293.346 195.172 293.686 195.966 293.686ZM202.122 294.576C201.911 294.576 201.753 294.528 201.648 294.432C201.552 294.327 201.504 294.188 201.504 294.016C201.504 293.911 201.528 293.81 201.576 293.714C201.633 293.609 201.71 293.504 201.806 293.398L205.023 289.952C205.511 289.425 205.861 288.941 206.071 288.501C206.291 288.051 206.401 287.596 206.401 287.137C206.401 286.562 206.224 286.127 205.87 285.83C205.525 285.523 205.018 285.37 204.348 285.37C203.917 285.37 203.51 285.437 203.127 285.571C202.744 285.705 202.375 285.911 202.021 286.189C201.897 286.285 201.782 286.328 201.677 286.318C201.581 286.309 201.495 286.27 201.418 286.203C201.341 286.136 201.289 286.05 201.26 285.945C201.231 285.839 201.231 285.734 201.26 285.629C201.298 285.523 201.375 285.428 201.49 285.342C201.863 285.035 202.313 284.791 202.84 284.609C203.366 284.418 203.903 284.322 204.448 284.322C205.128 284.322 205.703 284.427 206.172 284.638C206.641 284.848 206.995 285.16 207.234 285.571C207.474 285.973 207.593 286.466 207.593 287.051C207.593 287.453 207.526 287.85 207.392 288.243C207.268 288.626 207.072 289.018 206.804 289.42C206.545 289.822 206.205 290.239 205.784 290.67L202.725 293.901V293.571H207.565C207.747 293.571 207.881 293.614 207.967 293.7C208.063 293.776 208.11 293.896 208.11 294.059C208.11 294.231 208.063 294.361 207.967 294.447C207.881 294.533 207.747 294.576 207.565 294.576H202.122ZM210.733 294.576C210.522 294.576 210.364 294.528 210.259 294.432C210.163 294.327 210.115 294.188 210.115 294.016C210.115 293.911 210.139 293.81 210.187 293.714C210.245 293.609 210.321 293.504 210.417 293.398L213.634 289.952C214.122 289.425 214.472 288.941 214.682 288.501C214.903 288.051 215.013 287.596 215.013 287.137C215.013 286.562 214.836 286.127 214.481 285.83C214.137 285.523 213.629 285.37 212.959 285.37C212.528 285.37 212.121 285.437 211.738 285.571C211.355 285.705 210.987 285.911 210.632 286.189C210.508 286.285 210.393 286.328 210.288 286.318C210.192 286.309 210.106 286.27 210.029 286.203C209.953 286.136 209.9 286.05 209.871 285.945C209.843 285.839 209.843 285.734 209.871 285.629C209.91 285.523 209.986 285.428 210.101 285.342C210.475 285.035 210.925 284.791 211.451 284.609C211.978 284.418 212.514 284.322 213.06 284.322C213.739 284.322 214.314 284.427 214.783 284.638C215.252 284.848 215.606 285.16 215.846 285.571C216.085 285.973 216.205 286.466 216.205 287.051C216.205 287.453 216.138 287.85 216.004 288.243C215.879 288.626 215.683 289.018 215.415 289.42C215.156 289.822 214.816 290.239 214.395 290.67L211.336 293.901V293.571H216.176C216.358 293.571 216.492 293.614 216.578 293.7C216.674 293.776 216.722 293.896 216.722 294.059C216.722 294.231 216.674 294.361 216.578 294.447C216.492 294.533 216.358 294.576 216.176 294.576H210.733Z" fill="#030229"/>
<rect x="136" y="146.552" width="100.53" height="120.277" fill="#6C8539"/>
<path d="M160.726 202.95V204.84H159.787V202.95H160.726ZM160.726 211.074V212.964H159.787V211.074H160.726ZM161.579 209.638C161.579 209.503 161.554 209.382 161.505 209.276C161.46 209.17 161.38 209.074 161.266 208.988C161.155 208.898 161.002 208.814 160.805 208.736C160.613 208.658 160.37 208.585 160.075 208.515C159.65 208.413 159.274 208.298 158.946 208.172C158.623 208.041 158.351 207.889 158.13 207.718C157.909 207.546 157.742 207.343 157.627 207.11C157.517 206.877 157.461 206.605 157.461 206.294C157.461 205.995 157.527 205.723 157.658 205.478C157.789 205.228 157.975 205.014 158.216 204.834C158.458 204.65 158.744 204.508 159.075 204.41C159.407 204.312 159.771 204.263 160.167 204.263C160.744 204.263 161.245 204.357 161.671 204.545C162.096 204.733 162.425 204.993 162.659 205.325C162.896 205.652 163.014 206.032 163.014 206.466H161.536C161.536 206.261 161.482 206.077 161.376 205.914C161.274 205.75 161.123 205.619 160.922 205.521C160.722 205.423 160.47 205.374 160.167 205.374C159.877 205.374 159.638 205.417 159.449 205.503C159.261 205.584 159.12 205.693 159.026 205.828C158.936 205.959 158.891 206.102 158.891 206.257C158.891 206.38 158.918 206.49 158.971 206.589C159.028 206.687 159.118 206.777 159.241 206.859C159.364 206.94 159.523 207.018 159.719 207.092C159.916 207.165 160.155 207.237 160.437 207.306C160.859 207.405 161.231 207.521 161.554 207.656C161.877 207.791 162.147 207.951 162.364 208.135C162.581 208.315 162.742 208.527 162.849 208.773C162.959 209.014 163.014 209.29 163.014 209.601C163.014 209.916 162.949 210.198 162.818 210.448C162.687 210.693 162.499 210.902 162.254 211.074C162.012 211.246 161.722 211.379 161.382 211.473C161.043 211.563 160.664 211.608 160.247 211.608C159.879 211.608 159.513 211.563 159.149 211.473C158.789 211.383 158.464 211.244 158.173 211.055C157.883 210.867 157.65 210.628 157.474 210.338C157.302 210.043 157.216 209.697 157.216 209.301H158.701C158.701 209.513 158.738 209.697 158.811 209.853C158.889 210.004 158.997 210.129 159.137 210.227C159.28 210.321 159.449 210.391 159.646 210.436C159.842 210.481 160.059 210.503 160.296 210.503C160.595 210.503 160.838 210.464 161.026 210.387C161.219 210.305 161.358 210.198 161.444 210.068C161.534 209.937 161.579 209.794 161.579 209.638ZM168.704 204.361V211.51H167.225V206.079L165.286 206.589V205.423L168.538 204.361H168.704ZM177.634 207.306V208.564C177.634 209.084 177.568 209.536 177.437 209.92C177.31 210.301 177.128 210.616 176.891 210.865C176.658 211.115 176.376 211.301 176.044 211.424C175.717 211.546 175.353 211.608 174.952 211.608C174.551 211.608 174.185 211.546 173.854 211.424C173.527 211.301 173.244 211.115 173.007 210.865C172.77 210.616 172.586 210.301 172.455 209.92C172.324 209.536 172.259 209.084 172.259 208.564V207.306C172.259 206.787 172.322 206.337 172.449 205.957C172.58 205.576 172.764 205.261 173.001 205.012C173.238 204.758 173.52 204.57 173.848 204.447C174.175 204.324 174.539 204.263 174.94 204.263C175.341 204.263 175.707 204.324 176.038 204.447C176.37 204.57 176.654 204.758 176.891 205.012C177.128 205.261 177.31 205.576 177.437 205.957C177.568 206.337 177.634 206.787 177.634 207.306ZM176.149 208.681V207.178C176.149 206.879 176.122 206.621 176.069 206.404C176.016 206.184 175.938 206.002 175.836 205.858C175.733 205.715 175.607 205.611 175.455 205.545C175.308 205.476 175.136 205.441 174.94 205.441C174.752 205.441 174.582 205.476 174.431 205.545C174.283 205.611 174.159 205.715 174.056 205.858C173.954 206.002 173.876 206.184 173.823 206.404C173.77 206.621 173.743 206.879 173.743 207.178V208.681C173.743 208.984 173.77 209.245 173.823 209.466C173.876 209.687 173.954 209.869 174.056 210.012C174.163 210.156 174.292 210.262 174.443 210.331C174.594 210.401 174.764 210.436 174.952 210.436C175.144 210.436 175.314 210.401 175.461 210.331C175.613 210.262 175.74 210.156 175.842 210.012C175.944 209.869 176.02 209.687 176.069 209.466C176.122 209.245 176.149 208.984 176.149 208.681ZM183.434 204.361V211.51H181.955V206.079L180.016 206.589V205.423L183.268 204.361H183.434ZM187.27 210.773C187.27 210.544 187.348 210.352 187.504 210.196C187.659 210.037 187.87 209.957 188.136 209.957C188.406 209.957 188.616 210.037 188.768 210.196C188.923 210.352 189.001 210.544 189.001 210.773C189.001 211.002 188.923 211.195 188.768 211.35C188.616 211.505 188.406 211.583 188.136 211.583C187.87 211.583 187.659 211.505 187.504 211.35C187.348 211.195 187.27 211.002 187.27 210.773ZM196.77 209.552C196.77 209.892 196.701 210.19 196.562 210.448C196.427 210.702 196.239 210.914 195.997 211.086C195.756 211.258 195.472 211.389 195.144 211.479C194.817 211.565 194.461 211.608 194.077 211.608C193.566 211.608 193.105 211.532 192.696 211.381C192.291 211.225 191.97 210.994 191.733 210.687C191.496 210.381 191.377 210.002 191.377 209.552C191.377 209.241 191.442 208.965 191.573 208.724C191.708 208.478 191.897 208.27 192.138 208.098C192.383 207.922 192.668 207.789 192.991 207.699C193.318 207.605 193.676 207.558 194.065 207.558C194.453 207.558 194.811 207.605 195.138 207.699C195.47 207.789 195.756 207.922 195.997 208.098C196.243 208.27 196.433 208.478 196.568 208.724C196.703 208.965 196.77 209.241 196.77 209.552ZM195.286 209.436C195.286 209.227 195.234 209.049 195.132 208.902C195.03 208.755 194.887 208.642 194.703 208.564C194.519 208.482 194.306 208.442 194.065 208.442C193.823 208.442 193.611 208.482 193.426 208.564C193.246 208.642 193.105 208.755 193.003 208.902C192.905 209.049 192.856 209.227 192.856 209.436C192.856 209.644 192.905 209.824 193.003 209.976C193.105 210.123 193.248 210.237 193.433 210.319C193.617 210.397 193.831 210.436 194.077 210.436C194.318 210.436 194.529 210.397 194.709 210.319C194.893 210.237 195.034 210.123 195.132 209.976C195.234 209.824 195.286 209.644 195.286 209.436ZM196.593 206.263C196.593 206.542 196.529 206.795 196.402 207.024C196.28 207.249 196.106 207.446 195.881 207.613C195.656 207.777 195.39 207.904 195.083 207.994C194.78 208.08 194.445 208.123 194.077 208.123C193.709 208.123 193.371 208.08 193.064 207.994C192.758 207.904 192.492 207.777 192.267 207.613C192.042 207.446 191.866 207.249 191.739 207.024C191.616 206.795 191.555 206.542 191.555 206.263C191.555 205.83 191.661 205.466 191.874 205.171C192.091 204.873 192.389 204.648 192.77 204.496C193.15 204.341 193.582 204.263 194.065 204.263C194.555 204.263 194.989 204.341 195.365 204.496C195.746 204.648 196.044 204.873 196.261 205.171C196.482 205.466 196.593 205.83 196.593 206.263ZM195.114 206.337C195.114 206.157 195.071 206 194.985 205.865C194.899 205.725 194.778 205.619 194.623 205.545C194.467 205.472 194.281 205.435 194.065 205.435C193.852 205.435 193.668 205.472 193.512 205.545C193.361 205.619 193.242 205.723 193.156 205.858C193.075 205.989 193.034 206.149 193.034 206.337C193.034 206.521 193.075 206.683 193.156 206.822C193.242 206.961 193.363 207.069 193.518 207.147C193.678 207.225 193.864 207.263 194.077 207.263C194.294 207.263 194.478 207.225 194.629 207.147C194.784 207.069 194.903 206.961 194.985 206.822C195.071 206.683 195.114 206.521 195.114 206.337ZM202.558 204.361V211.51H201.08V206.079L199.141 206.589V205.423L202.393 204.361H202.558ZM211.802 204.361V211.51H210.324V204.361H211.802ZM216.386 204.361L213.343 207.908L211.625 209.583L211.281 208.196L212.496 206.711L214.545 204.361H216.386ZM214.748 211.51L212.385 208.215L213.465 207.3L216.515 211.51H214.748Z" fill="#FFFEFF"/>
<path opacity="0.7" d="M293.054 294.662C292.872 294.672 292.733 294.624 292.638 294.518C292.532 294.413 292.48 294.284 292.48 294.131C292.48 294.016 292.518 293.911 292.594 293.815C292.661 293.719 292.772 293.666 292.925 293.657L293.37 293.628C293.858 293.59 294.232 293.422 294.49 293.125C294.749 292.819 294.878 292.403 294.878 291.876V284.954C294.878 284.753 294.926 284.604 295.022 284.509C295.127 284.403 295.275 284.351 295.467 284.351C295.658 284.351 295.802 284.403 295.898 284.509C296.003 284.604 296.056 284.753 296.056 284.954V291.89C296.056 292.436 295.96 292.91 295.768 293.312C295.577 293.705 295.29 294.011 294.907 294.231C294.533 294.451 294.074 294.581 293.528 294.619L293.054 294.662ZM300.597 294.705C300.118 294.705 299.687 294.614 299.304 294.432C298.931 294.241 298.634 293.982 298.414 293.657C298.194 293.331 298.084 292.967 298.084 292.565C298.084 292.048 298.213 291.641 298.471 291.345C298.739 291.048 299.175 290.837 299.778 290.713C300.391 290.588 301.224 290.526 302.277 290.526H302.923V291.287H302.292C301.516 291.287 300.903 291.325 300.453 291.402C300.013 291.469 299.702 291.589 299.52 291.761C299.347 291.933 299.261 292.178 299.261 292.494C299.261 292.886 299.395 293.207 299.663 293.456C299.941 293.705 300.314 293.829 300.784 293.829C301.167 293.829 301.502 293.738 301.789 293.556C302.086 293.374 302.315 293.125 302.478 292.809C302.651 292.494 302.737 292.13 302.737 291.718V290.081C302.737 289.487 302.617 289.061 302.378 288.803C302.138 288.535 301.746 288.401 301.2 288.401C300.865 288.401 300.53 288.444 300.195 288.53C299.86 288.616 299.505 288.755 299.132 288.946C298.998 289.013 298.883 289.037 298.787 289.018C298.692 288.989 298.615 288.937 298.558 288.86C298.5 288.783 298.467 288.697 298.457 288.602C298.447 288.496 298.467 288.396 298.514 288.3C298.572 288.204 298.658 288.128 298.773 288.07C299.194 287.86 299.611 287.706 300.022 287.611C300.434 287.515 300.827 287.467 301.2 287.467C301.803 287.467 302.301 287.568 302.694 287.769C303.086 287.96 303.378 288.257 303.57 288.659C303.761 289.052 303.857 289.559 303.857 290.181V294.073C303.857 294.265 303.809 294.413 303.713 294.518C303.627 294.624 303.498 294.676 303.326 294.676C303.144 294.676 303.005 294.624 302.909 294.518C302.813 294.413 302.765 294.265 302.765 294.073V292.953H302.895C302.818 293.317 302.67 293.628 302.45 293.887C302.239 294.145 301.976 294.346 301.66 294.49C301.344 294.633 300.989 294.705 300.597 294.705ZM306.59 294.676C306.398 294.676 306.254 294.624 306.159 294.518C306.063 294.413 306.015 294.265 306.015 294.073V288.085C306.015 287.893 306.063 287.749 306.159 287.654C306.254 287.548 306.393 287.496 306.575 287.496C306.757 287.496 306.896 287.548 306.992 287.654C307.097 287.749 307.15 287.893 307.15 288.085V289.32L306.992 289.147C307.193 288.592 307.518 288.176 307.968 287.898C308.428 287.611 308.954 287.467 309.548 287.467C310.103 287.467 310.563 287.568 310.927 287.769C311.3 287.97 311.578 288.276 311.76 288.688C311.942 289.09 312.033 289.602 312.033 290.224V294.073C312.033 294.265 311.98 294.413 311.875 294.518C311.779 294.624 311.64 294.676 311.458 294.676C311.267 294.676 311.118 294.624 311.013 294.518C310.917 294.413 310.869 294.265 310.869 294.073V290.296C310.869 289.645 310.74 289.171 310.481 288.874C310.233 288.568 309.83 288.415 309.275 288.415C308.634 288.415 308.121 288.616 307.738 289.018C307.365 289.411 307.178 289.937 307.178 290.598V294.073C307.178 294.475 306.982 294.676 306.59 294.676ZM318.641 294.576C318.431 294.576 318.273 294.528 318.167 294.432C318.072 294.327 318.024 294.188 318.024 294.016C318.024 293.911 318.048 293.81 318.096 293.714C318.153 293.609 318.23 293.504 318.325 293.398L321.542 289.952C322.031 289.425 322.38 288.941 322.591 288.501C322.811 288.051 322.921 287.596 322.921 287.137C322.921 286.562 322.744 286.127 322.39 285.83C322.045 285.523 321.537 285.37 320.867 285.37C320.436 285.37 320.03 285.437 319.647 285.571C319.264 285.705 318.895 285.911 318.541 286.189C318.416 286.285 318.301 286.328 318.196 286.318C318.1 286.309 318.014 286.27 317.938 286.203C317.861 286.136 317.808 286.05 317.78 285.945C317.751 285.839 317.751 285.734 317.78 285.629C317.818 285.523 317.894 285.428 318.009 285.342C318.383 285.035 318.833 284.791 319.359 284.609C319.886 284.418 320.422 284.322 320.968 284.322C321.648 284.322 322.222 284.427 322.691 284.638C323.16 284.848 323.515 285.16 323.754 285.571C323.993 285.973 324.113 286.466 324.113 287.051C324.113 287.453 324.046 287.85 323.912 288.243C323.787 288.626 323.591 289.018 323.323 289.42C323.065 289.822 322.725 290.239 322.303 290.67L319.244 293.901V293.571H324.084C324.266 293.571 324.4 293.614 324.486 293.7C324.582 293.776 324.63 293.896 324.63 294.059C324.63 294.231 324.582 294.361 324.486 294.447C324.4 294.533 324.266 294.576 324.084 294.576H318.641ZM329.708 294.705C328.55 294.705 327.669 294.26 327.066 293.37C326.463 292.479 326.161 291.191 326.161 289.506C326.161 288.377 326.295 287.429 326.563 286.663C326.831 285.887 327.229 285.303 327.755 284.911C328.291 284.518 328.942 284.322 329.708 284.322C330.876 284.322 331.757 284.762 332.351 285.643C332.954 286.514 333.256 287.797 333.256 289.492C333.256 290.622 333.122 291.574 332.853 292.35C332.585 293.125 332.188 293.714 331.661 294.116C331.135 294.509 330.484 294.705 329.708 294.705ZM329.708 293.686C330.513 293.686 331.106 293.346 331.489 292.666C331.882 291.977 332.078 290.919 332.078 289.492C332.078 288.056 331.882 287.007 331.489 286.347C331.106 285.677 330.513 285.342 329.708 285.342C328.914 285.342 328.32 285.677 327.928 286.347C327.535 287.017 327.339 288.065 327.339 289.492C327.339 290.919 327.535 291.977 327.928 292.666C328.32 293.346 328.914 293.686 329.708 293.686ZM335.864 294.576C335.653 294.576 335.495 294.528 335.39 294.432C335.294 294.327 335.246 294.188 335.246 294.016C335.246 293.911 335.27 293.81 335.318 293.714C335.375 293.609 335.452 293.504 335.548 293.398L338.765 289.952C339.253 289.425 339.603 288.941 339.813 288.501C340.033 288.051 340.143 287.596 340.143 287.137C340.143 286.562 339.966 286.127 339.612 285.83C339.267 285.523 338.76 285.37 338.09 285.37C337.659 285.37 337.252 285.437 336.869 285.571C336.486 285.705 336.117 285.911 335.763 286.189C335.639 286.285 335.524 286.328 335.419 286.318C335.323 286.309 335.237 286.27 335.16 286.203C335.083 286.136 335.031 286.05 335.002 285.945C334.973 285.839 334.973 285.734 335.002 285.629C335.04 285.523 335.117 285.428 335.232 285.342C335.605 285.035 336.055 284.791 336.582 284.609C337.108 284.418 337.645 284.322 338.19 284.322C338.87 284.322 339.445 284.427 339.914 284.638C340.383 284.848 340.737 285.16 340.976 285.571C341.216 285.973 341.335 286.466 341.335 287.051C341.335 287.453 341.268 287.85 341.134 288.243C341.01 288.626 340.814 289.018 340.546 289.42C340.287 289.822 339.947 290.239 339.526 290.67L336.467 293.901V293.571H341.307C341.489 293.571 341.623 293.614 341.709 293.7C341.805 293.776 341.852 293.896 341.852 294.059C341.852 294.231 341.805 294.361 341.709 294.447C341.623 294.533 341.489 294.576 341.307 294.576H335.864ZM346.816 294.705C346.261 294.705 345.701 294.624 345.136 294.461C344.58 294.298 344.097 294.059 343.685 293.743C343.561 293.657 343.479 293.561 343.441 293.456C343.403 293.341 343.393 293.236 343.412 293.14C343.441 293.034 343.494 292.948 343.57 292.881C343.647 292.805 343.738 292.762 343.843 292.752C343.958 292.742 344.082 292.781 344.217 292.867C344.638 293.145 345.059 293.346 345.48 293.47C345.902 293.595 346.337 293.657 346.787 293.657C347.276 293.657 347.687 293.585 348.022 293.441C348.357 293.298 348.611 293.087 348.783 292.809C348.956 292.522 349.042 292.173 349.042 291.761C349.042 291.167 348.846 290.717 348.453 290.411C348.061 290.105 347.491 289.952 346.744 289.952H345.724C345.543 289.952 345.404 289.908 345.308 289.822C345.212 289.727 345.164 289.597 345.164 289.435C345.164 289.281 345.212 289.162 345.308 289.075C345.404 288.98 345.543 288.932 345.724 288.932H346.644C347.084 288.932 347.457 288.855 347.764 288.702C348.08 288.549 348.324 288.333 348.496 288.056C348.669 287.769 348.755 287.424 348.755 287.022C348.755 286.486 348.582 286.079 348.238 285.801C347.893 285.514 347.395 285.37 346.744 285.37C346.313 285.37 345.906 285.432 345.523 285.557C345.14 285.681 344.762 285.892 344.389 286.189C344.274 286.275 344.159 286.318 344.044 286.318C343.939 286.309 343.848 286.275 343.771 286.218C343.704 286.151 343.652 286.064 343.613 285.959C343.585 285.854 343.589 285.748 343.628 285.643C343.666 285.528 343.747 285.423 343.872 285.327C344.255 285.002 344.705 284.753 345.222 284.58C345.739 284.408 346.27 284.322 346.816 284.322C347.467 284.322 348.022 284.427 348.482 284.638C348.951 284.839 349.31 285.136 349.559 285.528C349.808 285.911 349.932 286.376 349.932 286.921C349.932 287.333 349.851 287.711 349.688 288.056C349.535 288.391 349.315 288.678 349.028 288.918C348.75 289.157 348.41 289.329 348.008 289.435V289.277C348.707 289.391 349.248 289.679 349.631 290.138C350.023 290.588 350.22 291.158 350.22 291.847C350.22 292.431 350.081 292.939 349.803 293.37C349.535 293.791 349.147 294.121 348.64 294.361C348.132 294.59 347.524 294.705 346.816 294.705Z" fill="#030229"/>
<rect x="272" y="0.244629" width="100.53" height="266.584" fill="#6C8539"/>
<path d="M292.953 124.86V126.749H292.014V124.86H292.953ZM292.953 132.984V134.873H292.014V132.984H292.953ZM293.806 131.548C293.806 131.413 293.781 131.292 293.732 131.186C293.687 131.079 293.607 130.983 293.493 130.897C293.383 130.807 293.229 130.723 293.033 130.646C292.841 130.568 292.597 130.494 292.303 130.425C291.877 130.323 291.501 130.208 291.174 130.081C290.85 129.95 290.578 129.799 290.358 129.627C290.137 129.455 289.969 129.253 289.854 129.02C289.744 128.787 289.689 128.515 289.689 128.204C289.689 127.905 289.754 127.633 289.885 127.388C290.016 127.138 290.202 126.923 290.443 126.743C290.685 126.559 290.971 126.418 291.302 126.32C291.634 126.222 291.998 126.173 292.395 126.173C292.971 126.173 293.473 126.267 293.898 126.455C294.323 126.643 294.653 126.903 294.886 127.234C295.123 127.561 295.242 127.942 295.242 128.376H293.763C293.763 128.171 293.71 127.987 293.603 127.823C293.501 127.66 293.35 127.529 293.149 127.431C292.949 127.332 292.697 127.283 292.395 127.283C292.104 127.283 291.865 127.326 291.677 127.412C291.489 127.494 291.347 127.602 291.253 127.737C291.163 127.868 291.118 128.011 291.118 128.167C291.118 128.29 291.145 128.4 291.198 128.498C291.255 128.596 291.345 128.686 291.468 128.768C291.591 128.85 291.75 128.928 291.947 129.001C292.143 129.075 292.382 129.147 292.665 129.216C293.086 129.314 293.458 129.431 293.781 129.566C294.104 129.701 294.374 129.86 294.591 130.044C294.808 130.224 294.97 130.437 295.076 130.683C295.186 130.924 295.242 131.2 295.242 131.511C295.242 131.826 295.176 132.108 295.045 132.358C294.914 132.603 294.726 132.812 294.481 132.984C294.239 133.155 293.949 133.288 293.61 133.382C293.27 133.472 292.892 133.517 292.474 133.517C292.106 133.517 291.74 133.472 291.376 133.382C291.016 133.292 290.691 133.153 290.4 132.965C290.11 132.777 289.877 132.538 289.701 132.247C289.529 131.953 289.443 131.607 289.443 131.21H290.928C290.928 131.423 290.965 131.607 291.039 131.763C291.116 131.914 291.225 132.039 291.364 132.137C291.507 132.231 291.677 132.3 291.873 132.345C292.069 132.39 292.286 132.413 292.523 132.413C292.822 132.413 293.065 132.374 293.254 132.296C293.446 132.215 293.585 132.108 293.671 131.977C293.761 131.846 293.806 131.703 293.806 131.548ZM302.606 132.247V133.419H297.152V132.419L299.759 129.977C300.029 129.727 300.242 129.505 300.398 129.308C300.557 129.108 300.672 128.928 300.741 128.768C300.811 128.605 300.845 128.457 300.845 128.326C300.845 128.04 300.751 127.805 300.563 127.621C300.375 127.437 300.105 127.345 299.753 127.345C299.463 127.345 299.222 127.398 299.029 127.504C298.841 127.606 298.702 127.748 298.612 127.928C298.522 128.108 298.477 128.312 298.477 128.541H296.992C296.992 128.108 297.101 127.711 297.317 127.351C297.534 126.991 297.845 126.705 298.25 126.492C298.659 126.279 299.148 126.173 299.716 126.173C300.265 126.173 300.733 126.259 301.122 126.43C301.514 126.602 301.813 126.85 302.017 127.173C302.222 127.492 302.324 127.87 302.324 128.308C302.324 128.549 302.283 128.778 302.202 128.995C302.124 129.212 302.009 129.423 301.858 129.627C301.707 129.832 301.522 130.04 301.306 130.253C301.089 130.466 300.843 130.693 300.569 130.934L299.048 132.247H302.606ZM306.173 129.253H306.946C307.237 129.253 307.476 129.212 307.664 129.13C307.852 129.044 307.991 128.928 308.081 128.78C308.176 128.633 308.223 128.463 308.223 128.271C308.223 128.095 308.182 127.938 308.1 127.799C308.022 127.66 307.897 127.549 307.726 127.467C307.558 127.386 307.337 127.345 307.063 127.345C306.842 127.345 306.644 127.377 306.468 127.443C306.296 127.508 306.159 127.602 306.057 127.725C305.954 127.848 305.903 127.995 305.903 128.167H304.418C304.418 127.754 304.535 127.4 304.768 127.105C305.005 126.807 305.32 126.578 305.713 126.418C306.11 126.255 306.55 126.173 307.032 126.173C307.429 126.173 307.791 126.216 308.118 126.302C308.445 126.387 308.728 126.516 308.965 126.688C309.206 126.86 309.39 127.073 309.517 127.326C309.644 127.58 309.707 127.872 309.707 128.204C309.707 128.445 309.652 128.672 309.542 128.885C309.431 129.093 309.268 129.28 309.051 129.443C308.834 129.607 308.57 129.736 308.259 129.83C307.948 129.92 307.597 129.965 307.204 129.965H306.173V129.253ZM306.173 130.302V129.597H307.204C307.65 129.597 308.038 129.637 308.37 129.719C308.701 129.801 308.975 129.92 309.192 130.075C309.409 130.231 309.57 130.423 309.677 130.652C309.783 130.877 309.836 131.133 309.836 131.419C309.836 131.754 309.767 132.053 309.628 132.315C309.489 132.572 309.29 132.791 309.032 132.971C308.779 133.151 308.482 133.288 308.143 133.382C307.803 133.472 307.435 133.517 307.038 133.517C306.695 133.517 306.361 133.476 306.038 133.395C305.719 133.313 305.429 133.186 305.167 133.014C304.909 132.838 304.703 132.617 304.547 132.352C304.396 132.086 304.32 131.769 304.32 131.4H305.805C305.805 131.58 305.858 131.742 305.965 131.885C306.071 132.028 306.22 132.141 306.412 132.223C306.605 132.305 306.832 132.345 307.094 132.345C307.368 132.345 307.599 132.305 307.787 132.223C307.975 132.137 308.116 132.02 308.21 131.873C308.304 131.722 308.351 131.546 308.351 131.345C308.351 131.161 308.319 131.004 308.253 130.873C308.188 130.738 308.094 130.629 307.971 130.548C307.852 130.462 307.705 130.4 307.529 130.364C307.357 130.323 307.163 130.302 306.946 130.302H306.173ZM317.336 132.247V133.419H311.881V132.419L314.489 129.977C314.759 129.727 314.972 129.505 315.127 129.308C315.287 129.108 315.401 128.928 315.471 128.768C315.54 128.605 315.575 128.457 315.575 128.326C315.575 128.04 315.481 127.805 315.293 127.621C315.105 127.437 314.835 127.345 314.483 127.345C314.192 127.345 313.951 127.398 313.759 127.504C313.571 127.606 313.432 127.748 313.342 127.928C313.252 128.108 313.207 128.312 313.207 128.541H311.722C311.722 128.108 311.83 127.711 312.047 127.351C312.264 126.991 312.575 126.705 312.98 126.492C313.389 126.279 313.877 126.173 314.446 126.173C314.994 126.173 315.463 126.259 315.851 126.43C316.244 126.602 316.543 126.85 316.747 127.173C316.952 127.492 317.054 127.87 317.054 128.308C317.054 128.549 317.013 128.778 316.931 128.995C316.853 129.212 316.739 129.423 316.588 129.627C316.436 129.832 316.252 130.04 316.035 130.253C315.818 130.466 315.573 130.693 315.299 130.934L313.777 132.247H317.336ZM324.59 129.216V130.474C324.59 130.993 324.525 131.445 324.394 131.83C324.267 132.21 324.085 132.525 323.848 132.775C323.615 133.024 323.333 133.211 323.001 133.333C322.674 133.456 322.31 133.517 321.909 133.517C321.508 133.517 321.142 133.456 320.811 133.333C320.483 133.211 320.201 133.024 319.964 132.775C319.727 132.525 319.543 132.21 319.412 131.83C319.281 131.445 319.215 130.993 319.215 130.474V129.216C319.215 128.697 319.279 128.247 319.406 127.866C319.537 127.486 319.721 127.171 319.958 126.921C320.195 126.668 320.477 126.48 320.805 126.357C321.132 126.234 321.496 126.173 321.897 126.173C322.298 126.173 322.664 126.234 322.995 126.357C323.326 126.48 323.611 126.668 323.848 126.921C324.085 127.171 324.267 127.486 324.394 127.866C324.525 128.247 324.59 128.697 324.59 129.216ZM323.106 130.591V129.087C323.106 128.789 323.079 128.531 323.026 128.314C322.973 128.093 322.895 127.911 322.793 127.768C322.69 127.625 322.564 127.521 322.412 127.455C322.265 127.386 322.093 127.351 321.897 127.351C321.709 127.351 321.539 127.386 321.388 127.455C321.24 127.521 321.115 127.625 321.013 127.768C320.911 127.911 320.833 128.093 320.78 128.314C320.727 128.531 320.7 128.789 320.7 129.087V130.591C320.7 130.893 320.727 131.155 320.78 131.376C320.833 131.597 320.911 131.779 321.013 131.922C321.12 132.065 321.248 132.172 321.4 132.241C321.551 132.311 321.721 132.345 321.909 132.345C322.101 132.345 322.271 132.311 322.418 132.241C322.57 132.172 322.696 132.065 322.799 131.922C322.901 131.779 322.977 131.597 323.026 131.376C323.079 131.155 323.106 130.893 323.106 130.591ZM326.862 132.683C326.862 132.454 326.94 132.262 327.096 132.106C327.251 131.947 327.462 131.867 327.728 131.867C327.998 131.867 328.208 131.947 328.36 132.106C328.515 132.262 328.593 132.454 328.593 132.683C328.593 132.912 328.515 133.104 328.36 133.26C328.208 133.415 327.998 133.493 327.728 133.493C327.462 133.493 327.251 133.415 327.096 133.26C326.94 133.104 326.862 132.912 326.862 132.683ZM335.074 126.185H335.283V127.388H335.184C334.747 127.388 334.36 127.437 334.025 127.535C333.693 127.629 333.413 127.774 333.184 127.971C332.959 128.167 332.787 128.414 332.669 128.713C332.554 129.012 332.497 129.361 332.497 129.762V130.811C332.497 131.065 332.528 131.288 332.589 131.48C332.654 131.673 332.744 131.834 332.859 131.965C332.973 132.092 333.108 132.188 333.264 132.253C333.423 132.315 333.595 132.345 333.779 132.345C334.029 132.345 334.246 132.29 334.43 132.18C334.614 132.065 334.755 131.912 334.853 131.72C334.955 131.523 335.007 131.306 335.007 131.069C335.007 130.824 334.957 130.609 334.859 130.425C334.765 130.241 334.626 130.098 334.442 129.995C334.262 129.889 334.041 129.836 333.779 129.836C333.518 129.836 333.282 129.887 333.074 129.989C332.869 130.087 332.706 130.214 332.583 130.37C332.464 130.525 332.401 130.689 332.393 130.861L331.994 130.425C332.006 130.163 332.102 129.899 332.282 129.633C332.462 129.363 332.714 129.136 333.037 128.952C333.36 128.764 333.743 128.67 334.184 128.67C334.696 128.67 335.119 128.776 335.454 128.989C335.794 129.202 336.048 129.49 336.215 129.854C336.387 130.214 336.473 130.615 336.473 131.057C336.473 131.523 336.365 131.942 336.148 132.315C335.931 132.683 335.624 132.975 335.227 133.192C334.831 133.409 334.358 133.517 333.81 133.517C333.385 133.517 333 133.452 332.656 133.321C332.313 133.186 332.018 132.996 331.773 132.75C331.532 132.501 331.345 132.202 331.215 131.855C331.084 131.503 331.018 131.108 331.018 130.67V130.179C331.018 129.554 331.106 128.995 331.282 128.504C331.462 128.009 331.724 127.59 332.067 127.247C332.415 126.899 332.841 126.635 333.344 126.455C333.847 126.275 334.424 126.185 335.074 126.185ZM342.15 126.271V133.419H340.672V127.989L338.733 128.498V127.332L341.985 126.271H342.15ZM351.395 126.271V133.419H349.916V126.271H351.395ZM355.978 126.271L352.935 129.817L351.217 131.493L350.873 130.106L352.088 128.621L354.137 126.271H355.978ZM354.34 133.419L351.977 130.124L353.057 129.21L356.107 133.419H354.34Z" fill="#FFFEFF"/>
<path opacity="0.7" d="M428.941 294.676C428.74 294.676 428.582 294.624 428.467 294.518C428.362 294.404 428.309 294.241 428.309 294.03V285.097C428.309 284.887 428.362 284.729 428.467 284.623C428.582 284.509 428.745 284.451 428.955 284.451H434.168C434.331 284.451 434.456 284.494 434.542 284.58C434.628 284.667 434.671 284.786 434.671 284.939C434.671 285.102 434.628 285.227 434.542 285.313C434.456 285.399 434.331 285.442 434.168 285.442H429.487V288.975H433.867C434.03 288.975 434.154 289.018 434.24 289.104C434.336 289.19 434.384 289.31 434.384 289.463C434.384 289.626 434.336 289.75 434.24 289.837C434.154 289.923 434.03 289.966 433.867 289.966H429.487V294.03C429.487 294.461 429.305 294.676 428.941 294.676ZM438.898 294.705C438.16 294.705 437.524 294.562 436.988 294.274C436.461 293.978 436.049 293.561 435.752 293.025C435.465 292.489 435.322 291.847 435.322 291.1C435.322 290.373 435.465 289.741 435.752 289.205C436.04 288.659 436.432 288.233 436.93 287.927C437.438 287.62 438.022 287.467 438.682 287.467C439.151 287.467 439.573 287.548 439.946 287.711C440.319 287.864 440.635 288.089 440.894 288.386C441.162 288.683 441.363 289.042 441.497 289.463C441.641 289.885 441.712 290.358 441.712 290.885C441.712 291.038 441.669 291.153 441.583 291.23C441.497 291.297 441.373 291.33 441.21 291.33H436.212V290.569H440.937L440.707 290.756C440.707 290.239 440.631 289.803 440.477 289.449C440.324 289.085 440.099 288.807 439.802 288.616C439.515 288.424 439.151 288.329 438.711 288.329C438.223 288.329 437.806 288.444 437.462 288.673C437.126 288.894 436.873 289.205 436.7 289.607C436.528 289.999 436.442 290.459 436.442 290.986V291.072C436.442 291.953 436.652 292.623 437.074 293.082C437.505 293.542 438.113 293.772 438.898 293.772C439.223 293.772 439.544 293.729 439.86 293.642C440.185 293.556 440.501 293.413 440.808 293.212C440.942 293.125 441.061 293.087 441.167 293.097C441.282 293.097 441.373 293.13 441.44 293.197C441.507 293.255 441.55 293.331 441.569 293.427C441.598 293.513 441.588 293.609 441.54 293.714C441.502 293.82 441.42 293.911 441.296 293.987C440.98 294.217 440.607 294.394 440.176 294.518C439.745 294.643 439.319 294.705 438.898 294.705ZM446.929 294.705C446.297 294.705 445.751 294.542 445.292 294.217C444.842 293.891 444.54 293.456 444.387 292.91L444.545 292.752V294.073C444.545 294.265 444.492 294.413 444.387 294.518C444.291 294.624 444.152 294.676 443.97 294.676C443.779 294.676 443.635 294.624 443.54 294.518C443.444 294.413 443.396 294.265 443.396 294.073V284.939C443.396 284.748 443.444 284.604 443.54 284.509C443.635 284.403 443.779 284.351 443.97 284.351C444.152 284.351 444.296 284.403 444.401 284.509C444.507 284.604 444.559 284.748 444.559 284.939V289.219H444.387C444.55 288.683 444.856 288.257 445.306 287.941C445.756 287.625 446.297 287.467 446.929 287.467C447.561 287.467 448.107 287.615 448.566 287.912C449.026 288.199 449.38 288.616 449.629 289.162C449.887 289.698 450.017 290.339 450.017 291.086C450.017 291.823 449.887 292.465 449.629 293.011C449.38 293.547 449.021 293.963 448.552 294.26C448.092 294.557 447.551 294.705 446.929 294.705ZM446.685 293.772C447.125 293.772 447.503 293.666 447.819 293.456C448.145 293.245 448.394 292.939 448.566 292.537C448.748 292.134 448.839 291.651 448.839 291.086C448.839 290.215 448.643 289.549 448.25 289.09C447.867 288.63 447.345 288.401 446.685 288.401C446.254 288.401 445.876 288.506 445.55 288.716C445.225 288.918 444.971 289.219 444.789 289.621C444.617 290.014 444.531 290.502 444.531 291.086C444.531 291.948 444.727 292.613 445.119 293.082C445.512 293.542 446.034 293.772 446.685 293.772ZM456.233 294.576C456.022 294.576 455.864 294.528 455.759 294.432C455.663 294.327 455.615 294.188 455.615 294.016C455.615 293.911 455.639 293.81 455.687 293.714C455.744 293.609 455.821 293.504 455.917 293.398L459.134 289.952C459.622 289.425 459.971 288.941 460.182 288.501C460.402 288.051 460.512 287.596 460.512 287.137C460.512 286.562 460.335 286.127 459.981 285.83C459.636 285.523 459.129 285.37 458.459 285.37C458.028 285.37 457.621 285.437 457.238 285.571C456.855 285.705 456.486 285.911 456.132 286.189C456.008 286.285 455.893 286.328 455.787 286.318C455.692 286.309 455.605 286.27 455.529 286.203C455.452 286.136 455.4 286.05 455.371 285.945C455.342 285.839 455.342 285.734 455.371 285.629C455.409 285.523 455.486 285.428 455.601 285.342C455.974 285.035 456.424 284.791 456.951 284.609C457.477 284.418 458.013 284.322 458.559 284.322C459.239 284.322 459.813 284.427 460.283 284.638C460.752 284.848 461.106 285.16 461.345 285.571C461.585 285.973 461.704 286.466 461.704 287.051C461.704 287.453 461.637 287.85 461.503 288.243C461.379 288.626 461.182 289.018 460.914 289.42C460.656 289.822 460.316 290.239 459.895 290.67L456.836 293.901V293.571H461.676C461.857 293.571 461.992 293.614 462.078 293.7C462.173 293.776 462.221 293.896 462.221 294.059C462.221 294.231 462.173 294.361 462.078 294.447C461.992 294.533 461.857 294.576 461.676 294.576H456.233ZM467.3 294.705C466.141 294.705 465.26 294.26 464.657 293.37C464.054 292.479 463.752 291.191 463.752 289.506C463.752 288.377 463.886 287.429 464.154 286.663C464.423 285.887 464.82 285.303 465.346 284.911C465.883 284.518 466.534 284.322 467.3 284.322C468.468 284.322 469.349 284.762 469.942 285.643C470.545 286.514 470.847 287.797 470.847 289.492C470.847 290.622 470.713 291.574 470.445 292.35C470.177 293.125 469.779 293.714 469.253 294.116C468.726 294.509 468.075 294.705 467.3 294.705ZM467.3 293.686C468.104 293.686 468.698 293.346 469.08 292.666C469.473 291.977 469.669 290.919 469.669 289.492C469.669 288.056 469.473 287.007 469.08 286.347C468.698 285.677 468.104 285.342 467.3 285.342C466.505 285.342 465.911 285.677 465.519 286.347C465.126 287.017 464.93 288.065 464.93 289.492C464.93 290.919 465.126 291.977 465.519 292.666C465.911 293.346 466.505 293.686 467.3 293.686ZM473.455 294.576C473.244 294.576 473.086 294.528 472.981 294.432C472.885 294.327 472.838 294.188 472.838 294.016C472.838 293.911 472.861 293.81 472.909 293.714C472.967 293.609 473.043 293.504 473.139 293.398L476.356 289.952C476.844 289.425 477.194 288.941 477.405 288.501C477.625 288.051 477.735 287.596 477.735 287.137C477.735 286.562 477.558 286.127 477.203 285.83C476.859 285.523 476.351 285.37 475.681 285.37C475.25 285.37 474.843 285.437 474.46 285.571C474.077 285.705 473.709 285.911 473.355 286.189C473.23 286.285 473.115 286.328 473.01 286.318C472.914 286.309 472.828 286.27 472.751 286.203C472.675 286.136 472.622 286.05 472.593 285.945C472.565 285.839 472.565 285.734 472.593 285.629C472.632 285.523 472.708 285.428 472.823 285.342C473.197 285.035 473.647 284.791 474.173 284.609C474.7 284.418 475.236 284.322 475.782 284.322C476.461 284.322 477.036 284.427 477.505 284.638C477.974 284.848 478.328 285.16 478.568 285.571C478.807 285.973 478.927 286.466 478.927 287.051C478.927 287.453 478.86 287.85 478.726 288.243C478.601 288.626 478.405 289.018 478.137 289.42C477.878 289.822 477.539 290.239 477.117 290.67L474.058 293.901V293.571H478.898C479.08 293.571 479.214 293.614 479.3 293.7C479.396 293.776 479.444 293.896 479.444 294.059C479.444 294.231 479.396 294.361 479.3 294.447C479.214 294.533 479.08 294.576 478.898 294.576H473.455ZM484.407 294.705C483.852 294.705 483.292 294.624 482.727 294.461C482.172 294.298 481.688 294.059 481.276 293.743C481.152 293.657 481.071 293.561 481.032 293.456C480.994 293.341 480.984 293.236 481.004 293.14C481.032 293.034 481.085 292.948 481.162 292.881C481.238 292.805 481.329 292.762 481.434 292.752C481.549 292.742 481.674 292.781 481.808 292.867C482.229 293.145 482.65 293.346 483.072 293.47C483.493 293.595 483.929 293.657 484.379 293.657C484.867 293.657 485.279 293.585 485.614 293.441C485.949 293.298 486.202 293.087 486.375 292.809C486.547 292.522 486.633 292.173 486.633 291.761C486.633 291.167 486.437 290.717 486.044 290.411C485.652 290.105 485.082 289.952 484.335 289.952H483.316C483.134 289.952 482.995 289.908 482.899 289.822C482.804 289.727 482.756 289.597 482.756 289.435C482.756 289.281 482.804 289.162 482.899 289.075C482.995 288.98 483.134 288.932 483.316 288.932H484.235C484.675 288.932 485.049 288.855 485.355 288.702C485.671 288.549 485.915 288.333 486.088 288.056C486.26 287.769 486.346 287.424 486.346 287.022C486.346 286.486 486.174 286.079 485.829 285.801C485.484 285.514 484.987 285.37 484.335 285.37C483.905 285.37 483.498 285.432 483.115 285.557C482.732 285.681 482.354 285.892 481.98 286.189C481.865 286.275 481.75 286.318 481.636 286.318C481.53 286.309 481.439 286.275 481.363 286.218C481.296 286.151 481.243 286.064 481.205 285.959C481.176 285.854 481.181 285.748 481.219 285.643C481.257 285.528 481.339 285.423 481.463 285.327C481.846 285.002 482.296 284.753 482.813 284.58C483.33 284.408 483.862 284.322 484.407 284.322C485.058 284.322 485.614 284.427 486.073 284.638C486.542 284.839 486.901 285.136 487.15 285.528C487.399 285.911 487.524 286.376 487.524 286.921C487.524 287.333 487.442 287.711 487.28 288.056C487.126 288.391 486.906 288.678 486.619 288.918C486.341 289.157 486.001 289.329 485.599 289.435V289.277C486.298 289.391 486.839 289.679 487.222 290.138C487.615 290.588 487.811 291.158 487.811 291.847C487.811 292.431 487.672 292.939 487.394 293.37C487.126 293.791 486.739 294.121 486.231 294.361C485.724 294.59 485.116 294.705 484.407 294.705Z" fill="#030229"/>
<rect x="408" y="247.082" width="100.53" height="19.747" fill="#6C8539"/>
<path d="M436.498 252.318V254.208H435.56V252.318H436.498ZM436.498 260.442V262.331H435.56V260.442H436.498ZM437.351 259.006C437.351 258.871 437.327 258.75 437.278 258.644C437.233 258.537 437.153 258.441 437.038 258.355C436.928 258.265 436.775 258.182 436.578 258.104C436.386 258.026 436.143 257.952 435.848 257.883C435.423 257.781 435.046 257.666 434.719 257.539C434.396 257.408 434.124 257.257 433.903 257.085C433.682 256.913 433.514 256.711 433.4 256.478C433.289 256.245 433.234 255.973 433.234 255.662C433.234 255.363 433.3 255.091 433.431 254.846C433.561 254.596 433.748 254.381 433.989 254.201C434.23 254.017 434.517 253.876 434.848 253.778C435.179 253.68 435.543 253.631 435.94 253.631C436.517 253.631 437.018 253.725 437.443 253.913C437.869 254.101 438.198 254.361 438.431 254.692C438.669 255.019 438.787 255.4 438.787 255.834H437.308C437.308 255.629 437.255 255.445 437.149 255.281C437.047 255.118 436.895 254.987 436.695 254.889C436.494 254.79 436.243 254.741 435.94 254.741C435.65 254.741 435.41 254.784 435.222 254.87C435.034 254.952 434.893 255.06 434.799 255.195C434.709 255.326 434.664 255.469 434.664 255.625C434.664 255.748 434.69 255.858 434.744 255.956C434.801 256.054 434.891 256.144 435.014 256.226C435.136 256.308 435.296 256.386 435.492 256.459C435.689 256.533 435.928 256.605 436.21 256.674C436.631 256.772 437.004 256.889 437.327 257.024C437.65 257.159 437.92 257.318 438.137 257.502C438.354 257.682 438.515 257.895 438.621 258.141C438.732 258.382 438.787 258.658 438.787 258.969C438.787 259.284 438.722 259.566 438.591 259.816C438.46 260.061 438.272 260.27 438.026 260.442C437.785 260.613 437.495 260.746 437.155 260.84C436.815 260.93 436.437 260.975 436.02 260.975C435.652 260.975 435.286 260.93 434.922 260.84C434.562 260.75 434.236 260.611 433.946 260.423C433.656 260.235 433.422 259.996 433.246 259.705C433.075 259.411 432.989 259.065 432.989 258.668H434.474C434.474 258.881 434.51 259.065 434.584 259.221C434.662 259.372 434.77 259.497 434.909 259.595C435.052 259.689 435.222 259.758 435.419 259.803C435.615 259.848 435.832 259.871 436.069 259.871C436.368 259.871 436.611 259.832 436.799 259.754C436.991 259.673 437.13 259.566 437.216 259.435C437.306 259.304 437.351 259.161 437.351 259.006ZM444.477 253.729V260.877H442.998V255.447L441.059 255.956V254.79L444.311 253.729H444.477ZM452.13 253.643H452.339V254.846H452.24C451.803 254.846 451.416 254.895 451.081 254.993C450.749 255.087 450.469 255.232 450.24 255.429C450.015 255.625 449.843 255.872 449.725 256.171C449.61 256.47 449.553 256.819 449.553 257.22V258.269C449.553 258.523 449.584 258.746 449.645 258.938C449.71 259.131 449.8 259.292 449.915 259.423C450.03 259.55 450.165 259.646 450.32 259.711C450.479 259.773 450.651 259.803 450.835 259.803C451.085 259.803 451.302 259.748 451.486 259.638C451.67 259.523 451.811 259.37 451.909 259.178C452.011 258.981 452.063 258.764 452.063 258.527C452.063 258.282 452.013 258.067 451.915 257.883C451.821 257.699 451.682 257.556 451.498 257.453C451.318 257.347 451.097 257.294 450.835 257.294C450.574 257.294 450.338 257.345 450.13 257.447C449.925 257.545 449.762 257.672 449.639 257.828C449.52 257.983 449.457 258.147 449.449 258.319L449.05 257.883C449.062 257.621 449.158 257.357 449.338 257.091C449.518 256.821 449.77 256.594 450.093 256.41C450.416 256.222 450.799 256.128 451.24 256.128C451.752 256.128 452.175 256.234 452.51 256.447C452.85 256.66 453.104 256.948 453.271 257.312C453.443 257.672 453.529 258.073 453.529 258.515C453.529 258.981 453.421 259.4 453.204 259.773C452.987 260.141 452.68 260.433 452.283 260.65C451.887 260.867 451.414 260.975 450.866 260.975C450.441 260.975 450.056 260.91 449.713 260.779C449.369 260.644 449.074 260.454 448.829 260.208C448.588 259.959 448.401 259.66 448.271 259.313C448.14 258.961 448.074 258.566 448.074 258.128V257.637C448.074 257.012 448.162 256.453 448.338 255.962C448.518 255.467 448.78 255.048 449.123 254.705C449.471 254.357 449.897 254.093 450.4 253.913C450.903 253.733 451.48 253.643 452.13 253.643ZM455.678 260.141C455.678 259.912 455.756 259.72 455.911 259.564C456.067 259.405 456.278 259.325 456.543 259.325C456.813 259.325 457.024 259.405 457.175 259.564C457.331 259.72 457.409 259.912 457.409 260.141C457.409 260.37 457.331 260.562 457.175 260.718C457.024 260.873 456.813 260.951 456.543 260.951C456.278 260.951 456.067 260.873 455.911 260.718C455.756 260.562 455.678 260.37 455.678 260.141ZM465.178 258.92C465.178 259.259 465.109 259.558 464.97 259.816C464.835 260.069 464.647 260.282 464.405 260.454C464.164 260.626 463.88 260.757 463.552 260.847C463.225 260.932 462.869 260.975 462.485 260.975C461.973 260.975 461.513 260.9 461.104 260.748C460.699 260.593 460.378 260.362 460.141 260.055C459.904 259.748 459.785 259.37 459.785 258.92C459.785 258.609 459.85 258.333 459.981 258.092C460.116 257.846 460.304 257.637 460.546 257.466C460.791 257.29 461.076 257.157 461.399 257.067C461.726 256.973 462.084 256.926 462.472 256.926C462.861 256.926 463.219 256.973 463.546 257.067C463.878 257.157 464.164 257.29 464.405 257.466C464.651 257.637 464.841 257.846 464.976 258.092C465.111 258.333 465.178 258.609 465.178 258.92ZM463.694 258.803C463.694 258.595 463.642 258.417 463.54 258.269C463.438 258.122 463.295 258.01 463.111 257.932C462.927 257.85 462.714 257.809 462.472 257.809C462.231 257.809 462.018 257.85 461.834 257.932C461.654 258.01 461.513 258.122 461.411 258.269C461.313 258.417 461.264 258.595 461.264 258.803C461.264 259.012 461.313 259.192 461.411 259.343C461.513 259.49 461.656 259.605 461.84 259.687C462.025 259.765 462.239 259.803 462.485 259.803C462.726 259.803 462.937 259.765 463.117 259.687C463.301 259.605 463.442 259.49 463.54 259.343C463.642 259.192 463.694 259.012 463.694 258.803ZM465 255.631C465 255.909 464.937 256.163 464.81 256.392C464.688 256.617 464.514 256.813 464.289 256.981C464.064 257.145 463.798 257.271 463.491 257.361C463.188 257.447 462.853 257.49 462.485 257.49C462.117 257.49 461.779 257.447 461.472 257.361C461.166 257.271 460.9 257.145 460.675 256.981C460.45 256.813 460.274 256.617 460.147 256.392C460.024 256.163 459.963 255.909 459.963 255.631C459.963 255.197 460.069 254.833 460.282 254.539C460.499 254.24 460.797 254.015 461.178 253.864C461.558 253.708 461.99 253.631 462.472 253.631C462.963 253.631 463.397 253.708 463.773 253.864C464.154 254.015 464.452 254.24 464.669 254.539C464.89 254.833 465 255.197 465 255.631ZM463.522 255.705C463.522 255.525 463.479 255.367 463.393 255.232C463.307 255.093 463.186 254.987 463.031 254.913C462.875 254.839 462.689 254.803 462.472 254.803C462.26 254.803 462.076 254.839 461.92 254.913C461.769 254.987 461.65 255.091 461.564 255.226C461.483 255.357 461.442 255.516 461.442 255.705C461.442 255.889 461.483 256.05 461.564 256.189C461.65 256.328 461.771 256.437 461.926 256.515C462.086 256.592 462.272 256.631 462.485 256.631C462.702 256.631 462.886 256.592 463.037 256.515C463.192 256.437 463.311 256.328 463.393 256.189C463.479 256.05 463.522 255.889 463.522 255.705ZM472.641 259.705V260.877H467.187V259.877L469.794 257.435C470.064 257.185 470.277 256.963 470.432 256.766C470.592 256.566 470.707 256.386 470.776 256.226C470.846 256.063 470.88 255.915 470.88 255.784C470.88 255.498 470.786 255.263 470.598 255.079C470.41 254.895 470.14 254.803 469.788 254.803C469.498 254.803 469.256 254.856 469.064 254.962C468.876 255.064 468.737 255.206 468.647 255.386C468.557 255.566 468.512 255.77 468.512 255.999H467.027C467.027 255.566 467.135 255.169 467.352 254.809C467.569 254.449 467.88 254.163 468.285 253.95C468.694 253.737 469.183 253.631 469.751 253.631C470.3 253.631 470.768 253.717 471.156 253.888C471.549 254.06 471.848 254.308 472.052 254.631C472.257 254.95 472.359 255.328 472.359 255.766C472.359 256.007 472.318 256.236 472.236 256.453C472.159 256.67 472.044 256.881 471.893 257.085C471.741 257.29 471.557 257.498 471.341 257.711C471.124 257.924 470.878 258.151 470.604 258.392L469.083 259.705H472.641ZM480.21 253.729V260.877H478.732V253.729H480.21ZM484.794 253.729L481.751 257.275L480.032 258.951L479.689 257.564L480.904 256.079L482.953 253.729H484.794ZM483.156 260.877L480.793 257.582L481.873 256.668L484.923 260.877H483.156Z" fill="#FFFEFF"/>
<path opacity="0.7" d="M564.168 294.676C563.996 294.676 563.862 294.628 563.766 294.533C563.67 294.427 563.622 294.284 563.622 294.102V284.925C563.622 284.733 563.67 284.59 563.766 284.494C563.862 284.398 563.996 284.35 564.168 284.35C564.321 284.35 564.441 284.384 564.527 284.451C564.623 284.508 564.709 284.609 564.786 284.752L568.721 292.163H568.29L572.211 284.752C572.287 284.609 572.369 284.508 572.455 284.451C572.541 284.384 572.665 284.35 572.828 284.35C572.991 284.35 573.12 284.398 573.216 284.494C573.312 284.59 573.36 284.733 573.36 284.925V294.102C573.36 294.284 573.312 294.427 573.216 294.533C573.13 294.628 572.996 294.676 572.814 294.676C572.641 294.676 572.507 294.628 572.412 294.533C572.316 294.427 572.268 294.284 572.268 294.102V286.031H572.613L569.022 292.766C568.955 292.891 568.884 292.982 568.807 293.039C568.74 293.087 568.639 293.111 568.505 293.111C568.371 293.111 568.266 293.082 568.189 293.025C568.113 292.967 568.046 292.881 567.988 292.766L564.355 286.016H564.7V294.102C564.7 294.284 564.652 294.427 564.556 294.533C564.47 294.628 564.341 294.676 564.168 294.676ZM577.919 294.705C577.44 294.705 577.009 294.614 576.626 294.432C576.253 294.241 575.956 293.982 575.736 293.657C575.516 293.331 575.406 292.967 575.406 292.565C575.406 292.048 575.535 291.641 575.793 291.344C576.061 291.048 576.497 290.837 577.1 290.712C577.713 290.588 578.546 290.526 579.599 290.526H580.245V291.287H579.613C578.838 291.287 578.225 291.325 577.775 291.402C577.335 291.469 577.024 291.589 576.842 291.761C576.669 291.933 576.583 292.177 576.583 292.493C576.583 292.886 576.717 293.207 576.985 293.455C577.263 293.704 577.636 293.829 578.106 293.829C578.488 293.829 578.824 293.738 579.111 293.556C579.408 293.374 579.637 293.125 579.8 292.809C579.973 292.493 580.059 292.129 580.059 291.718V290.081C580.059 289.487 579.939 289.061 579.7 288.802C579.46 288.534 579.068 288.4 578.522 288.4C578.187 288.4 577.852 288.443 577.517 288.53C577.182 288.616 576.827 288.755 576.454 288.946C576.32 289.013 576.205 289.037 576.109 289.018C576.014 288.989 575.937 288.936 575.88 288.86C575.822 288.783 575.789 288.697 575.779 288.601C575.769 288.496 575.789 288.395 575.836 288.3C575.894 288.204 575.98 288.127 576.095 288.07C576.516 287.859 576.933 287.706 577.344 287.61C577.756 287.515 578.149 287.467 578.522 287.467C579.125 287.467 579.623 287.567 580.016 287.768C580.408 287.96 580.7 288.257 580.892 288.659C581.083 289.051 581.179 289.559 581.179 290.181V294.073C581.179 294.265 581.131 294.413 581.035 294.518C580.949 294.624 580.82 294.676 580.648 294.676C580.466 294.676 580.327 294.624 580.231 294.518C580.135 294.413 580.087 294.265 580.087 294.073V292.953H580.217C580.14 293.317 579.992 293.628 579.771 293.886C579.561 294.145 579.298 294.346 578.982 294.49C578.666 294.633 578.311 294.705 577.919 294.705ZM583.926 294.676C583.734 294.676 583.586 294.624 583.481 294.518C583.385 294.413 583.337 294.265 583.337 294.073V288.084C583.337 287.893 583.385 287.749 583.481 287.653C583.576 287.548 583.715 287.495 583.897 287.495C584.079 287.495 584.218 287.548 584.314 287.653C584.419 287.749 584.472 287.893 584.472 288.084V289.248H584.328C584.481 288.683 584.773 288.247 585.204 287.941C585.635 287.634 586.166 287.472 586.798 287.452C586.942 287.443 587.057 287.476 587.143 287.553C587.229 287.62 587.277 287.74 587.286 287.912C587.296 288.075 587.258 288.204 587.172 288.3C587.085 288.395 586.951 288.453 586.769 288.472L586.54 288.501C585.889 288.558 585.386 288.769 585.032 289.133C584.687 289.487 584.515 289.975 584.515 290.598V294.073C584.515 294.265 584.462 294.413 584.357 294.518C584.261 294.624 584.117 294.676 583.926 294.676ZM592.948 294.576C592.737 294.576 592.579 294.528 592.474 294.432C592.378 294.327 592.33 294.188 592.33 294.016C592.33 293.91 592.354 293.81 592.402 293.714C592.46 293.609 592.536 293.503 592.632 293.398L595.849 289.951C596.337 289.425 596.687 288.941 596.897 288.501C597.117 288.051 597.228 287.596 597.228 287.136C597.228 286.562 597.05 286.126 596.696 285.83C596.352 285.523 595.844 285.37 595.174 285.37C594.743 285.37 594.336 285.437 593.953 285.571C593.57 285.705 593.202 285.911 592.847 286.189C592.723 286.284 592.608 286.327 592.503 286.318C592.407 286.308 592.321 286.27 592.244 286.203C592.168 286.136 592.115 286.05 592.086 285.944C592.057 285.839 592.057 285.734 592.086 285.629C592.124 285.523 592.201 285.427 592.316 285.341C592.689 285.035 593.139 284.791 593.666 284.609C594.193 284.417 594.729 284.322 595.274 284.322C595.954 284.322 596.529 284.427 596.998 284.638C597.467 284.848 597.821 285.159 598.061 285.571C598.3 285.973 598.42 286.466 598.42 287.05C598.42 287.452 598.353 287.85 598.219 288.242C598.094 288.625 597.898 289.018 597.63 289.42C597.371 289.822 597.031 290.239 596.61 290.669L593.551 293.901V293.57H598.391C598.573 293.57 598.707 293.613 598.793 293.7C598.889 293.776 598.937 293.896 598.937 294.059C598.937 294.231 598.889 294.36 598.793 294.446C598.707 294.533 598.573 294.576 598.391 294.576H592.948ZM604.015 294.705C602.856 294.705 601.976 294.26 601.372 293.369C600.769 292.479 600.468 291.191 600.468 289.506C600.468 288.376 600.602 287.428 600.87 286.663C601.138 285.887 601.535 285.303 602.062 284.91C602.598 284.518 603.249 284.322 604.015 284.322C605.183 284.322 606.064 284.762 606.657 285.643C607.261 286.514 607.562 287.797 607.562 289.492C607.562 290.621 607.428 291.574 607.16 292.35C606.892 293.125 606.495 293.714 605.968 294.116C605.441 294.509 604.79 294.705 604.015 294.705ZM604.015 293.685C604.819 293.685 605.413 293.345 605.796 292.666C606.188 291.976 606.385 290.918 606.385 289.492C606.385 288.056 606.188 287.007 605.796 286.347C605.413 285.676 604.819 285.341 604.015 285.341C603.22 285.341 602.627 285.676 602.234 286.347C601.842 287.017 601.645 288.065 601.645 289.492C601.645 290.918 601.842 291.976 602.234 292.666C602.627 293.345 603.22 293.685 604.015 293.685ZM610.17 294.576C609.96 294.576 609.802 294.528 609.696 294.432C609.601 294.327 609.553 294.188 609.553 294.016C609.553 293.91 609.577 293.81 609.625 293.714C609.682 293.609 609.759 293.503 609.854 293.398L613.071 289.951C613.56 289.425 613.909 288.941 614.12 288.501C614.34 288.051 614.45 287.596 614.45 287.136C614.45 286.562 614.273 286.126 613.919 285.83C613.574 285.523 613.067 285.37 612.396 285.37C611.966 285.37 611.559 285.437 611.176 285.571C610.793 285.705 610.424 285.911 610.07 286.189C609.945 286.284 609.83 286.327 609.725 286.318C609.629 286.308 609.543 286.27 609.467 286.203C609.39 286.136 609.337 286.05 609.309 285.944C609.28 285.839 609.28 285.734 609.309 285.629C609.347 285.523 609.424 285.427 609.538 285.341C609.912 285.035 610.362 284.791 610.888 284.609C611.415 284.417 611.951 284.322 612.497 284.322C613.177 284.322 613.751 284.427 614.22 284.638C614.689 284.848 615.044 285.159 615.283 285.571C615.522 285.973 615.642 286.466 615.642 287.05C615.642 287.452 615.575 287.85 615.441 288.242C615.317 288.625 615.12 289.018 614.852 289.42C614.594 289.822 614.254 290.239 613.833 290.669L610.774 293.901V293.57H615.613C615.795 293.57 615.929 293.613 616.015 293.7C616.111 293.776 616.159 293.896 616.159 294.059C616.159 294.231 616.111 294.36 616.015 294.446C615.929 294.533 615.795 294.576 615.613 294.576H610.17ZM621.123 294.705C620.567 294.705 620.007 294.624 619.442 294.461C618.887 294.298 618.403 294.059 617.992 293.743C617.867 293.657 617.786 293.561 617.748 293.455C617.709 293.341 617.7 293.235 617.719 293.14C617.748 293.034 617.8 292.948 617.877 292.881C617.953 292.804 618.044 292.761 618.15 292.752C618.265 292.742 618.389 292.781 618.523 292.867C618.944 293.144 619.366 293.345 619.787 293.47C620.208 293.594 620.644 293.657 621.094 293.657C621.582 293.657 621.994 293.585 622.329 293.441C622.664 293.298 622.918 293.087 623.09 292.809C623.262 292.522 623.349 292.173 623.349 291.761C623.349 291.167 623.152 290.717 622.76 290.411C622.367 290.104 621.798 289.951 621.051 289.951H620.031C619.849 289.951 619.71 289.908 619.615 289.822C619.519 289.726 619.471 289.597 619.471 289.434C619.471 289.281 619.519 289.161 619.615 289.075C619.71 288.98 619.849 288.932 620.031 288.932H620.95C621.391 288.932 621.764 288.855 622.07 288.702C622.386 288.549 622.63 288.333 622.803 288.056C622.975 287.768 623.061 287.424 623.061 287.022C623.061 286.485 622.889 286.078 622.544 285.801C622.2 285.514 621.702 285.37 621.051 285.37C620.62 285.37 620.213 285.432 619.83 285.557C619.447 285.681 619.069 285.892 618.695 286.189C618.581 286.275 618.466 286.318 618.351 286.318C618.245 286.308 618.155 286.275 618.078 286.217C618.011 286.15 617.958 286.064 617.92 285.959C617.891 285.853 617.896 285.748 617.934 285.643C617.973 285.528 618.054 285.423 618.178 285.327C618.561 285.001 619.011 284.752 619.528 284.58C620.045 284.408 620.577 284.322 621.123 284.322C621.774 284.322 622.329 284.427 622.788 284.638C623.258 284.839 623.617 285.135 623.866 285.528C624.115 285.911 624.239 286.375 624.239 286.921C624.239 287.333 624.158 287.711 623.995 288.056C623.842 288.391 623.621 288.678 623.334 288.917C623.057 289.157 622.717 289.329 622.315 289.434V289.276C623.013 289.391 623.554 289.678 623.937 290.138C624.33 290.588 624.526 291.158 624.526 291.847C624.526 292.431 624.387 292.938 624.11 293.369C623.842 293.791 623.454 294.121 622.946 294.36C622.439 294.59 621.831 294.705 621.123 294.705Z" fill="#030229"/>
<rect x="544" y="252.467" width="100.53" height="14.3614" fill="#6C8539"/>
<path d="M572.498 255.01V256.9H571.56V255.01H572.498ZM572.498 263.134V265.024H571.56V263.134H572.498ZM573.351 261.698C573.351 261.563 573.327 261.443 573.278 261.336C573.233 261.23 573.153 261.134 573.038 261.048C572.928 260.958 572.775 260.874 572.578 260.796C572.386 260.719 572.143 260.645 571.848 260.576C571.423 260.473 571.046 260.359 570.719 260.232C570.396 260.101 570.124 259.95 569.903 259.778C569.682 259.606 569.514 259.404 569.4 259.17C569.289 258.937 569.234 258.665 569.234 258.354C569.234 258.056 569.3 257.784 569.431 257.538C569.561 257.289 569.748 257.074 569.989 256.894C570.23 256.71 570.517 256.569 570.848 256.471C571.179 256.372 571.543 256.323 571.94 256.323C572.517 256.323 573.018 256.417 573.443 256.606C573.869 256.794 574.198 257.054 574.431 257.385C574.669 257.712 574.787 258.093 574.787 258.526H573.308C573.308 258.322 573.255 258.138 573.149 257.974C573.047 257.81 572.895 257.679 572.695 257.581C572.494 257.483 572.243 257.434 571.94 257.434C571.65 257.434 571.41 257.477 571.222 257.563C571.034 257.645 570.893 257.753 570.799 257.888C570.709 258.019 570.664 258.162 570.664 258.318C570.664 258.44 570.69 258.551 570.744 258.649C570.801 258.747 570.891 258.837 571.014 258.919C571.136 259.001 571.296 259.078 571.492 259.152C571.689 259.226 571.928 259.297 572.21 259.367C572.631 259.465 573.004 259.582 573.327 259.716C573.65 259.851 573.92 260.011 574.137 260.195C574.354 260.375 574.515 260.588 574.621 260.833C574.732 261.075 574.787 261.351 574.787 261.662C574.787 261.977 574.722 262.259 574.591 262.508C574.46 262.754 574.272 262.962 574.026 263.134C573.785 263.306 573.495 263.439 573.155 263.533C572.815 263.623 572.437 263.668 572.02 263.668C571.652 263.668 571.286 263.623 570.922 263.533C570.562 263.443 570.236 263.304 569.946 263.116C569.656 262.928 569.422 262.688 569.246 262.398C569.075 262.103 568.989 261.758 568.989 261.361H570.474C570.474 261.574 570.51 261.758 570.584 261.913C570.662 262.064 570.77 262.189 570.909 262.287C571.052 262.382 571.222 262.451 571.419 262.496C571.615 262.541 571.832 262.564 572.069 262.564C572.368 262.564 572.611 262.525 572.799 262.447C572.991 262.365 573.13 262.259 573.216 262.128C573.306 261.997 573.351 261.854 573.351 261.698ZM580.477 256.422V263.57H578.998V258.14L577.059 258.649V257.483L580.311 256.422H580.477ZM589.517 262.398V263.57H584.062V262.57L586.67 260.128C586.94 259.878 587.152 259.655 587.308 259.459C587.467 259.258 587.582 259.078 587.651 258.919C587.721 258.755 587.756 258.608 587.756 258.477C587.756 258.191 587.662 257.956 587.473 257.771C587.285 257.587 587.015 257.495 586.664 257.495C586.373 257.495 586.132 257.548 585.94 257.655C585.751 257.757 585.612 257.898 585.522 258.078C585.432 258.258 585.387 258.463 585.387 258.692H583.902C583.902 258.258 584.011 257.861 584.228 257.501C584.444 257.141 584.755 256.855 585.16 256.642C585.569 256.43 586.058 256.323 586.627 256.323C587.175 256.323 587.643 256.409 588.032 256.581C588.425 256.753 588.723 257 588.928 257.324C589.132 257.643 589.234 258.021 589.234 258.459C589.234 258.7 589.194 258.929 589.112 259.146C589.034 259.363 588.92 259.573 588.768 259.778C588.617 259.982 588.433 260.191 588.216 260.404C587.999 260.616 587.754 260.843 587.48 261.085L585.958 262.398H589.517ZM591.678 262.834C591.678 262.604 591.756 262.412 591.911 262.257C592.067 262.097 592.278 262.017 592.543 262.017C592.813 262.017 593.024 262.097 593.175 262.257C593.331 262.412 593.409 262.604 593.409 262.834C593.409 263.063 593.331 263.255 593.175 263.41C593.024 263.566 592.813 263.643 592.543 263.643C592.278 263.643 592.067 263.566 591.911 263.41C591.756 263.255 591.678 263.063 591.678 262.834ZM601.418 260.852V262.03H595.625L595.564 261.103L598.963 256.422H600.123L598.847 258.502L597.049 260.852H601.418ZM600.467 256.422V263.57H598.988V256.422H600.467ZM608.592 256.422V257.238L605.445 263.57H603.886L607.034 257.6H602.96V256.422H608.592ZM616.21 256.422V263.57H614.732V256.422H616.21ZM620.794 256.422L617.751 259.968L616.032 261.643L615.689 260.256L616.904 258.772L618.953 256.422H620.794ZM619.156 263.57L616.793 260.275L617.873 259.361L620.923 263.57H619.156Z" fill="#FFFEFF"/>
</svg>
