<svg width="60" height="60" viewBox="0 0 60 60" fill="none" xmlns="http://www.w3.org/2000/svg">
<g id="Icon">
<rect id="Rectangle 25" opacity="0.1" width="60" height="60" rx="30" fill="#769145"/>
<path id="Vector" d="M41.0686 17V20.0098M41.0686 20.0098V23.0196M41.0686 20.0098H44.0784M41.0686 20.0098H38.0588M35.049 24.5245C35.049 27.849 32.3539 30.5441 29.0294 30.5441C25.7049 30.5441 23.0098 27.849 23.0098 24.5245C23.0098 21.2 25.7049 18.5049 29.0294 18.5049C32.3539 18.5049 35.049 21.2 35.049 24.5245ZM24.9927 33.5539H33.0662C33.7923 33.5539 34.1553 33.5539 34.48 33.6233C35.604 33.8633 36.576 34.7068 37.1205 35.9151C37.2779 36.2641 37.3928 36.6788 37.6224 37.5085C37.8983 38.5052 38.0363 39.0036 38.0549 39.4056C38.1207 40.8238 37.3542 42.1043 36.2162 42.4775C35.8937 42.5833 35.4575 42.5833 34.5849 42.5833H23.474C22.6014 42.5833 22.1652 42.5833 21.8426 42.4775C20.7046 42.1043 19.9381 40.8238 20.0039 39.4056C20.0226 39.0036 20.1605 38.5052 20.4365 37.5085C20.6661 36.6788 20.7809 36.2641 20.9382 35.9151C21.4828 34.7068 22.4547 33.8633 23.5788 33.6233C23.9035 33.5539 24.2666 33.5539 24.9927 33.5539Z" stroke="#769145" stroke-width="1.5049" stroke-linecap="round" stroke-linejoin="round"/>
</g>
</svg>
