<svg width="60" height="60" viewBox="0 0 60 60" fill="none" xmlns="http://www.w3.org/2000/svg">
<g id="Icon">
<rect id="Rectangle 23" opacity="0.1" width="60" height="60" rx="30" fill="#769145"/>
<g id="clients">
<path id="Vector" d="M26.7178 30.3076C27.935 30.3076 29.1247 29.9467 30.1367 29.2705C31.1487 28.5944 31.9374 27.6332 32.4031 26.5087C32.869 25.3843 32.9908 24.147 32.7533 22.9532C32.5159 21.7595 31.9298 20.663 31.0691 19.8024C30.2086 18.9418 29.1121 18.3557 27.9184 18.1183C26.7247 17.8808 25.4874 18.0027 24.3628 18.4684C23.2384 18.9342 22.2773 19.7229 21.6012 20.7349C20.9249 21.7469 20.564 22.9367 20.564 24.1538C20.564 25.7859 21.2124 27.3511 22.3664 28.5053C23.5205 29.6592 25.0857 30.3076 26.7178 30.3076ZM26.7178 20.4615C27.4481 20.4615 28.1619 20.6781 28.7691 21.0838C29.3763 21.4895 29.8495 22.0661 30.129 22.7408C30.4085 23.4155 30.4817 24.1579 30.3392 24.8741C30.1966 25.5903 29.8451 26.2482 29.3287 26.7646C28.8123 27.2811 28.1544 27.6327 27.4382 27.7752C26.7219 27.9176 25.9795 27.8444 25.3049 27.565C24.6301 27.2855 24.0535 26.8122 23.6478 26.2051C23.2422 25.5979 23.0256 24.8841 23.0256 24.1538C23.0256 23.1745 23.4146 22.2354 24.107 21.543C24.7995 20.8505 25.7386 20.4615 26.7178 20.4615Z" fill="#769145"/>
<path id="Vector_2" d="M15.2306 41.7946C15.5557 41.7903 15.8664 41.6594 16.0963 41.4295C16.3262 41.1996 16.4571 40.8889 16.4614 40.5638C16.4614 37.3639 18.2009 35.2306 26.7177 35.2306C35.2346 35.2306 36.974 37.3639 36.974 40.5638C36.974 40.8902 37.1037 41.2033 37.3345 41.4341C37.5653 41.665 37.8784 41.7946 38.2048 41.7946C38.5312 41.7946 38.8443 41.665 39.0751 41.4341C39.3059 41.2033 39.4355 40.8902 39.4355 40.5638C39.4355 32.769 30.5249 32.769 26.7177 32.769C22.9106 32.769 13.9999 32.769 13.9999 40.5638C14.0042 40.8889 14.1351 41.1996 14.365 41.4295C14.5949 41.6594 14.9056 41.7903 15.2306 41.7946Z" fill="#769145"/>
<path id="Vector_3" d="M36.039 31.6368H36.5641C37.8698 31.5106 39.0718 30.871 39.9058 29.8585C40.7398 28.846 41.1374 27.5437 41.0112 26.2379C40.885 24.9323 40.2453 23.7302 39.2328 22.8962C38.2203 22.0622 36.918 21.6646 35.6123 21.7908C35.4449 21.798 35.2807 21.8393 35.1298 21.9122C34.9789 21.9851 34.8445 22.088 34.7348 22.2147C34.6251 22.3413 34.5424 22.4891 34.4918 22.6488C34.4412 22.8086 34.4238 22.977 34.4406 23.1437C34.4574 23.3104 34.508 23.472 34.5894 23.6184C34.6708 23.7649 34.7813 23.8932 34.9141 23.9954C35.0468 24.0977 35.1991 24.1718 35.3614 24.2131C35.5238 24.2545 35.693 24.2622 35.8584 24.2359C36.1788 24.204 36.5023 24.2369 36.8096 24.3328C37.1169 24.4286 37.4018 24.5854 37.6471 24.7938C37.8964 24.9949 38.1031 25.2435 38.2552 25.5252C38.4074 25.807 38.5019 26.1162 38.5333 26.4348C38.5672 26.7574 38.5366 27.0837 38.4432 27.3943C38.3498 27.7051 38.1956 27.9941 37.9894 28.2445C37.7832 28.4951 37.5292 28.702 37.2422 28.8533C36.9553 29.0046 36.6411 29.0974 36.3179 29.1261C35.7837 29.1719 35.2489 29.0453 34.7918 28.7651C34.5132 28.5932 34.1778 28.5389 33.8593 28.6144C33.5408 28.6897 33.2653 28.8886 33.0933 29.1671C32.9213 29.4458 32.8672 29.7812 32.9425 30.0997C33.018 30.4182 33.2169 30.6937 33.4954 30.8656C34.2565 31.351 35.1364 31.6178 36.039 31.6368Z" fill="#769145"/>
<path id="Vector_4" d="M44.7692 40.5638C45.0943 40.5595 45.4049 40.4286 45.6348 40.1987C45.8647 39.9688 45.9957 39.6581 46 39.333C46 34.9023 44.8185 31.9485 39.0257 31.9485C38.6993 31.9485 38.3862 32.0781 38.1554 32.309C37.9246 32.5397 37.7949 32.8528 37.7949 33.1792C37.7949 33.5056 37.9246 33.8187 38.1554 34.0495C38.3862 34.2804 38.6993 34.41 39.0257 34.41C42.8821 34.41 43.5385 35.6408 43.5385 39.333C43.5427 39.6581 43.6738 39.9688 43.9037 40.1987C44.1336 40.4286 44.4441 40.5595 44.7692 40.5638Z" fill="#769145"/>
</g>
</g>
</svg>
