<svg width="17" height="21" viewBox="0 0 17 21" fill="none" xmlns="http://www.w3.org/2000/svg">
<path fillRule="evenodd" clipRule="evenodd" d="M6.6906 4.45966H5.94883C5.53855 4.45966 5.20557 4.79264 5.20557 5.20292C5.20557 5.6132 5.53855 5.94618 5.94883 5.94618H6.69357L6.69506 6.69093C6.6958 7.1012 7.02952 7.43344 7.4398 7.4327C7.85008 7.43196 8.18232 7.09823 8.18158 6.68795L8.18009 5.94618H8.92186C9.33214 5.94618 9.66512 5.6132 9.66512 5.20292C9.66512 4.79264 9.33214 4.45966 8.92186 4.45966H8.17712L8.17563 3.71492C8.17489 3.30464 7.84116 2.9724 7.43088 2.97315C7.02061 2.97389 6.68837 3.30761 6.68911 3.71789L6.6906 4.45966Z" fill="#CDF76B"/>
<path fillRule="evenodd" clipRule="evenodd" d="M14.8652 5.20281V2.22978C14.8652 1.63814 14.6303 1.07104 14.2119 0.653325C13.7941 0.23487 13.227 0 12.6354 0C10.0615 0 4.80368 0 2.22978 0C1.63814 0 1.07104 0.23487 0.653325 0.653325C0.23487 1.07104 0 1.63814 0 2.22978V18.5815C0 19.1731 0.23487 19.7402 0.653325 20.1579C1.07104 20.5764 1.63814 20.8113 2.22978 20.8113C4.16225 20.8113 9.89724 20.8113 12.6347 20.8113C13.0449 20.8113 13.3779 20.4783 13.3779 20.068C13.3779 19.6577 13.0449 19.3247 12.6347 19.3247C9.89724 19.3247 4.16225 19.3247 2.22978 19.3247C2.03281 19.3247 1.84328 19.2467 1.70429 19.107C1.56456 18.968 1.48652 18.7784 1.48652 18.5815V2.22978C1.48652 2.03281 1.56456 1.84328 1.70429 1.70429C1.84328 1.56456 2.03281 1.48652 2.22978 1.48652H12.6354C12.8324 1.48652 13.0219 1.56456 13.1609 1.70429C13.3006 1.84328 13.3787 2.03281 13.3787 2.22978V5.20281C13.3787 5.61309 13.7116 5.94607 14.1219 5.94607C14.5322 5.94607 14.8652 5.61309 14.8652 5.20281Z" fill="#CDF76B"/>
<path fillRule="evenodd" clipRule="evenodd" d="M13.3653 9.07214C12.5039 9.37985 11.8862 10.2041 11.8862 11.1718C11.8862 12.4049 12.877 13.392 14.1101 13.392C14.5211 13.392 14.8593 13.7249 14.8593 14.136C14.8593 14.5462 14.5263 14.8792 14.116 14.8792C13.7057 14.8792 13.3727 14.5462 13.3727 14.136C13.3727 13.7257 13.0398 13.3927 12.6295 13.3927C12.2192 13.3927 11.8862 13.7257 11.8862 14.136C11.8862 15.1037 12.5046 15.9287 13.3675 16.2364L13.3638 17.1008C13.3623 17.5111 13.6938 17.8456 14.1041 17.8471C14.5144 17.8493 14.8489 17.517 14.8503 17.1068L14.8541 16.2401C15.7222 15.9354 16.3458 15.1081 16.3458 14.136C16.3458 12.9059 15.3394 11.9054 14.1101 11.9054C13.702 11.9054 13.3727 11.5799 13.3727 11.1718C13.3727 10.7616 13.7057 10.4286 14.116 10.4286C14.5248 10.4286 14.857 10.7593 14.8593 11.1674V11.177C14.8622 11.5844 15.1937 11.9151 15.6025 11.9151C16.0128 11.9151 16.3458 11.5821 16.3458 11.1718C16.3458 10.1989 15.7214 9.37093 14.8518 9.06693L14.8593 8.19063C14.8622 7.78035 14.5322 7.44514 14.122 7.44143C13.7117 7.43845 13.3757 7.7692 13.3727 8.17874L13.3653 9.07214Z" fill="#CDF76B"/>
<path fillRule="evenodd" clipRule="evenodd" d="M3.7164 11.1628H9.66247C10.0728 11.1628 10.4057 10.8298 10.4057 10.4195C10.4057 10.0092 10.0728 9.67627 9.66247 9.67627H3.7164C3.30612 9.67627 2.97314 10.0092 2.97314 10.4195C2.97314 10.8298 3.30612 11.1628 3.7164 11.1628Z" fill="#CDF76B"/>
<path fillRule="evenodd" clipRule="evenodd" d="M3.7164 14.145H9.66247C10.0728 14.145 10.4057 13.812 10.4057 13.4017C10.4057 12.9914 10.0728 12.6584 9.66247 12.6584H3.7164C3.30612 12.6584 2.97314 12.9914 2.97314 13.4017C2.97314 13.812 3.30612 14.145 3.7164 14.145Z" fill="#CDF76B"/>
<path fillRule="evenodd" clipRule="evenodd" d="M3.7164 17.1039H9.66247C10.0728 17.1039 10.4057 16.771 10.4057 16.3607C10.4057 15.9504 10.0728 15.6174 9.66247 15.6174H3.7164C3.30612 15.6174 2.97314 15.9504 2.97314 16.3607C2.97314 16.771 3.30612 17.1039 3.7164 17.1039Z" fill="#CDF76B"/>
</svg>
