<svg width="20" height="15" viewBox="0 0 20 15" fill="none" xmlns="http://www.w3.org/2000/svg">
<path d="M7.94827 7.69238C8.709 7.69238 9.45259 7.46684 10.0851 7.04417C10.7176 6.6216 11.2106 6.02088 11.5016 5.31806C11.7928 4.61526 11.8689 3.84192 11.7205 3.09584C11.5721 2.34975 11.2058 1.66443 10.6679 1.12652C10.13 0.588622 9.44469 0.222311 8.69864 0.0739097C7.95258 -0.0745019 7.17924 0.0016628 6.47636 0.292773C5.77358 0.583884 5.17286 1.07686 4.75029 1.70936C4.32762 2.34187 4.10208 3.08549 4.10208 3.84619C4.10208 4.86626 4.50732 5.84457 5.22855 6.56591C5.94989 7.28715 6.92816 7.69238 7.94827 7.69238ZM7.94827 1.53848C8.40468 1.53848 8.85084 1.67382 9.23033 1.92739C9.60982 2.18098 9.90562 2.54139 10.0803 2.96306C10.255 3.38475 10.3007 3.84875 10.2117 4.2964C10.1225 4.74406 9.90285 5.15525 9.58008 5.478C9.25731 5.80077 8.84612 6.02057 8.39853 6.1096C7.95083 6.19862 7.48683 6.15288 7.06519 5.97821C6.64344 5.80354 6.28302 5.50774 6.02948 5.12828C5.77594 4.74878 5.64056 4.30262 5.64056 3.84619C5.64056 3.23414 5.88374 2.64717 6.31646 2.21439C6.74929 1.78161 7.33626 1.53848 7.94827 1.53848Z" fill="#CDF76B"/>
<path d="M0.769116 14.872C0.972298 14.8694 1.16645 14.7875 1.31015 14.6438C1.45384 14.5001 1.53569 14.306 1.53835 14.1028C1.53835 12.1028 2.62554 10.7694 7.94867 10.7694C13.2718 10.7694 14.359 12.1028 14.359 14.1028C14.359 14.3068 14.44 14.5025 14.5843 14.6467C14.7285 14.791 14.9242 14.872 15.1282 14.872C15.3322 14.872 15.5279 14.791 15.6722 14.6467C15.8164 14.5025 15.8975 14.3068 15.8975 14.1028C15.8975 9.23096 10.3282 9.23096 7.94867 9.23096C5.56916 9.23096 -0.00012207 9.23096 -0.00012207 14.1028C0.0025444 14.306 0.0843916 14.5001 0.228086 14.6438C0.371778 14.7875 0.565935 14.8694 0.769116 14.872Z" fill="#CDF76B"/>
<path d="M13.7739 8.52322H14.1021C14.9182 8.44435 15.6695 8.04455 16.1907 7.41173C16.712 6.7789 16.9605 5.96494 16.8816 5.14884C16.8028 4.33279 16.4029 3.5815 15.7701 3.06023C15.1373 2.53897 14.3233 2.29045 13.5073 2.36933C13.4026 2.37383 13.3 2.39965 13.2057 2.44521C13.1114 2.49076 13.0274 2.5551 12.9588 2.63426C12.8902 2.71343 12.8386 2.80577 12.8069 2.90561C12.7753 3.00546 12.7644 3.11071 12.7749 3.21492C12.7854 3.31912 12.8171 3.42009 12.8679 3.51163C12.9188 3.60317 12.9879 3.68334 13.0709 3.74726C13.1538 3.81117 13.249 3.85747 13.3505 3.88331C13.452 3.90916 13.5577 3.914 13.6611 3.89755C13.8613 3.87759 14.0635 3.89818 14.2556 3.9581C14.4477 4.01801 14.6257 4.11602 14.7791 4.24627C14.9348 4.37192 15.064 4.52732 15.1591 4.70341C15.2542 4.87951 15.3133 5.07276 15.3329 5.27192C15.3541 5.47355 15.335 5.67745 15.2766 5.87161C15.2183 6.06587 15.1218 6.24648 14.993 6.403C14.8641 6.55962 14.7053 6.68895 14.526 6.78352C14.3466 6.87808 14.1503 6.93603 13.9483 6.95398C13.6144 6.98259 13.2801 6.90352 12.9944 6.72834C12.8203 6.62095 12.6107 6.587 12.4116 6.63418C12.2125 6.68126 12.0404 6.80557 11.9329 6.97962C11.8254 7.15378 11.7915 7.36342 11.8386 7.5625C11.8858 7.76158 12.0101 7.93378 12.1842 8.04117C12.6599 8.34456 13.2098 8.51133 13.7739 8.52322Z" fill="#CDF76B"/>
<path d="M19.2308 14.1027C19.434 14.1 19.6281 14.0182 19.7718 13.8745C19.9154 13.7308 19.9973 13.5366 20 13.3334C20 10.5642 19.2615 8.71802 15.641 8.71802C15.437 8.71802 15.2413 8.79904 15.0971 8.94335C14.9528 9.08756 14.8717 9.28325 14.8717 9.48726C14.8717 9.69126 14.9528 9.88695 15.0971 10.0312C15.2413 10.1755 15.437 10.2565 15.641 10.2565C18.0513 10.2565 18.4615 11.0257 18.4615 13.3334C18.4642 13.5366 18.5461 13.7308 18.6898 13.8745C18.8335 14.0182 19.0276 14.1 19.2308 14.1027Z" fill="#CDF76B"/>
</svg>
