<svg width="23" height="20" viewBox="0 0 23 20" fill="none" xmlns="http://www.w3.org/2000/svg">
<path d="M17.1007 0.714355H6.41281C3.20643 0.714355 1.06885 2.31754 1.06885 6.05831V9.86321C1.06885 10.2587 1.47499 10.5045 1.82769 10.3442C2.87511 9.86321 4.08284 9.68152 5.3547 9.90596C8.16562 10.4083 10.2284 13.0161 10.1536 15.8698C10.1429 16.3187 10.0788 16.7569 9.96119 17.1844C9.87569 17.5158 10.1429 17.8257 10.4849 17.8257H17.1007C20.3071 17.8257 22.4447 16.2225 22.4447 12.4818V6.05831C22.4447 2.31754 20.3071 0.714355 17.1007 0.714355ZM11.7568 11.9367C10.2818 11.9367 9.08478 10.7396 9.08478 9.26469C9.08478 7.78976 10.2818 6.59271 11.7568 6.59271C13.2317 6.59271 14.4287 7.78976 14.4287 9.26469C14.4287 10.7396 13.2317 11.9367 11.7568 11.9367ZM19.5055 11.4023C19.5055 11.8405 19.1421 12.2039 18.7039 12.2039C18.2657 12.2039 17.9023 11.8405 17.9023 11.4023V7.1271C17.9023 6.6889 18.2657 6.32551 18.7039 6.32551C19.1421 6.32551 19.5055 6.6889 19.5055 7.1271V11.4023Z" fill="#CDF76B"/>
<path d="M4.27517 11.4021C1.91314 11.4021 0 13.3152 0 15.6773C0 16.4789 0.224446 17.2377 0.619899 17.879C1.35737 19.1188 2.71473 19.9524 4.27517 19.9524C5.8356 19.9524 7.19297 19.1188 7.93043 17.879C8.32589 17.2377 8.55033 16.4789 8.55033 15.6773C8.55033 13.3152 6.6372 11.4021 4.27517 11.4021ZM6.38069 15.3246L4.10416 17.4301C3.95453 17.569 3.75146 17.6438 3.55908 17.6438C3.35601 17.6438 3.15294 17.569 2.99262 17.4087L1.93451 16.3506C1.62456 16.0407 1.62456 15.5276 1.93451 15.2177C2.24446 14.9077 2.75748 14.9077 3.06743 15.2177L3.58045 15.7307L5.29052 14.1489C5.61116 13.8496 6.12418 13.871 6.42344 14.1916C6.7227 14.5123 6.70132 15.0253 6.38069 15.3246Z" fill="#CDF76B"/>
</svg>
