<svg width="60" height="60" viewBox="0 0 60 60" fill="none" xmlns="http://www.w3.org/2000/svg">
<rect width="60" height="60" fill="#F5F5F5"/>
<g id="Dashboard (Total Assets)-v3" clip-path="url(#clip0_103_85759)">
<rect width="1440" height="1047" transform="translate(-273 -153)" fill="#F5F5F2"/>
<g id="Cards">
<g id="Tatal Assets">
<g id="BG" filter="url(#filter0_d_103_85759)">
<rect x="-34" y="-28" width="277" height="116" rx="10" fill="white"/>
<rect x="-33.25" y="-27.25" width="275.5" height="114.5" rx="9.25" stroke="white" stroke-width="1.5"/>
</g>
<g id="Icon">
<rect id="Rectangle 29" opacity="0.1" width="60" height="60" rx="30" fill="#769145"/>
<g id="Group 1597881587">
<g id="Group 1597881586">
<path id="Vector" d="M41.071 29.0338C41.1259 28.8734 41.1094 28.7321 41.0212 28.6098C40.9327 28.4878 40.7753 28.3644 40.5488 28.2397L40.1795 29.3178C40.6743 29.4192 40.9714 29.3244 41.071 29.0338Z" fill="#769145"/>
<path id="Vector_2" d="M39.4673 33.3984C42.2557 33.8319 45.0385 32.2213 45.985 29.4587C47.047 26.3588 45.395 22.985 42.2954 21.923C39.1956 20.8607 35.8218 22.5126 34.7597 25.6125C33.8321 28.3199 34.9749 31.2361 37.3445 32.6386L37.5402 35.5656L39.4673 33.3984ZM37.8495 29.6952C37.5379 29.5265 37.2902 29.3552 37.1062 29.181L37.4912 28.0572C37.6218 28.1621 37.7511 28.2583 37.8787 28.3469C38.0066 28.4354 38.1398 28.5196 38.2793 28.5993C38.4184 28.6792 38.5674 28.7558 38.726 28.8293C38.8843 28.9029 39.0604 28.9749 39.2543 29.0456L39.6845 27.79C39.4555 27.673 39.2322 27.5444 39.0158 27.4037C38.799 27.2632 38.6164 27.1014 38.4678 26.9181C38.3191 26.7347 38.219 26.5254 38.1675 26.2899C38.1156 26.0543 38.1429 25.7817 38.249 25.4723C38.3354 25.2199 38.4582 25.0112 38.6174 24.8455C38.7768 24.6802 38.9669 24.5551 39.1879 24.4708C39.4091 24.3864 39.658 24.3424 39.9345 24.3387C40.2112 24.3354 40.5101 24.3695 40.8319 24.4411L41.0342 23.8506L41.9456 24.1629L41.7492 24.7363C42.0229 24.8471 42.2961 24.9758 42.5682 25.1225C42.8404 25.2692 43.0825 25.4258 43.2945 25.5926L42.9056 26.7278C42.3822 26.3349 41.8706 26.0402 41.3701 25.8429L40.934 27.1157C41.1618 27.2365 41.3825 27.3685 41.5958 27.5123C41.8091 27.6559 41.9881 27.8196 42.132 28.0035C42.2762 28.1875 42.3731 28.3968 42.423 28.6317C42.4726 28.8665 42.4454 29.137 42.3406 29.4426C42.173 29.932 41.87 30.2575 41.4325 30.4194C40.9947 30.5811 40.4485 30.5884 39.7944 30.4411L39.5921 31.0317L38.6807 30.7194L38.8731 30.1576C38.5022 30.0181 38.1611 29.864 37.8495 29.6952Z" fill="#769145"/>
<path id="Vector_3" d="M40.4483 25.5596C40.1587 25.4944 39.9443 25.4904 39.8054 25.5473C39.6661 25.6044 39.5723 25.7037 39.5239 25.8451C39.4689 26.0055 39.4879 26.1487 39.5816 26.275C39.6749 26.4011 39.8384 26.5295 40.0711 26.6606L40.4483 25.5596Z" fill="#769145"/>
</g>
<g id="User">
<path id="Vector_4" d="M26.2119 33.1737C29.5735 33.1737 32.2987 30.4485 32.2987 27.0869C32.2987 23.7252 29.5735 21 26.2119 21C22.8502 21 20.125 23.7252 20.125 27.0869C20.125 30.4485 22.8502 33.1737 26.2119 33.1737Z" stroke="#769145" stroke-width="2.02895" stroke-miterlimit="10"/>
<path id="Vector_5" d="M16.9868 38.5007C17.9217 36.8811 19.2664 35.5362 20.8858 34.6012C22.5052 33.6661 24.3422 33.1738 26.2122 33.1738C28.0822 33.1738 29.9192 33.6661 31.5386 34.6012C33.158 35.5362 34.5028 36.8811 35.4376 38.5007" stroke="#769145" stroke-width="2.02895" stroke-linecap="round" stroke-linejoin="round"/>
</g>
</g>
</g>
</g>
</g>
</g>
<defs>
<filter id="filter0_d_103_85759" x="-48" y="-38" width="305" height="144" filterUnits="userSpaceOnUse" color-interpolation-filters="sRGB">
<feFlood flood-opacity="0" result="BackgroundImageFix"/>
<feColorMatrix in="SourceAlpha" type="matrix" values="0 0 0 0 0 0 0 0 0 0 0 0 0 0 0 0 0 0 127 0" result="hardAlpha"/>
<feOffset dy="4"/>
<feGaussianBlur stdDeviation="7"/>
<feComposite in2="hardAlpha" operator="out"/>
<feColorMatrix type="matrix" values="0 0 0 0 0.462745 0 0 0 0 0.568627 0 0 0 0 0.270588 0 0 0 0.2 0"/>
<feBlend mode="normal" in2="BackgroundImageFix" result="effect1_dropShadow_103_85759"/>
<feBlend mode="normal" in="SourceGraphic" in2="effect1_dropShadow_103_85759" result="shape"/>
</filter>
<clipPath id="clip0_103_85759">
<rect width="1440" height="1047" fill="white" transform="translate(-273 -153)"/>
</clipPath>
</defs>
</svg>
