<svg width="17" height="11" viewBox="0 0 17 11" fill="none" xmlns="http://www.w3.org/2000/svg">
<path id="Vector 647 (Stroke)" fill-rule="evenodd" clip-rule="evenodd" d="M9.2249 2.13253L16.5799 0L14.7492 7.4359L12.4655 5.2435L8.78164 9.08084C8.65658 9.21111 8.48381 9.28475 8.30322 9.28475C8.12264 9.28475 7.94986 9.21111 7.8248 9.08084L5.11988 6.26321L1.14162 10.4072C0.887963 10.6715 0.468138 10.68 0.203913 10.4264C-0.0603123 10.1727 -0.0688801 9.75289 0.184776 9.48866L4.64146 4.84629C4.76652 4.71602 4.93929 4.64238 5.11988 4.64238C5.30046 4.64238 5.47324 4.71602 5.5983 4.84629L8.30322 7.66392L11.5086 4.32493L9.2249 2.13253Z" fill="#1C1C1C"/>
</svg>
